<svg width="116" height="97" viewBox="0 0 116 97" fill="none" xmlns="http://www.w3.org/2000/svg">
<ellipse cx="90.4477" cy="3.02319" rx="2.67407" ry="2.59457" transform="rotate(90 90.4477 3.02319)" fill="#0047AD"/>
<ellipse cx="90.4477" cy="25.572" rx="2.67407" ry="2.59457" transform="rotate(90 90.4477 25.572)" fill="#0047AD"/>
<ellipse cx="90.4477" cy="48.1211" rx="2.67407" ry="2.59457" transform="rotate(90 90.4477 48.1211)" fill="#0047AD"/>
<ellipse cx="90.4477" cy="70.6699" rx="2.67407" ry="2.59457" transform="rotate(90 90.4477 70.6699)" fill="#0047AD"/>
<ellipse cx="68.5689" cy="3.02319" rx="2.67407" ry="2.59457" transform="rotate(90 68.5689 3.02319)" fill="#0047AD"/>
<ellipse cx="68.5689" cy="25.572" rx="2.67407" ry="2.59457" transform="rotate(90 68.5689 25.572)" fill="#0047AD"/>
<ellipse cx="68.5689" cy="48.1211" rx="2.67407" ry="2.59457" transform="rotate(90 68.5689 48.1211)" fill="#0047AD"/>
<ellipse cx="68.5689" cy="70.6697" rx="2.67407" ry="2.59457" transform="rotate(90 68.5689 70.6697)" fill="#0047AD"/>
<ellipse cx="46.6904" cy="3.02319" rx="2.67407" ry="2.59457" transform="rotate(90 46.6904 3.02319)" fill="#0047AD"/>
<ellipse cx="46.6904" cy="25.572" rx="2.67407" ry="2.59457" transform="rotate(90 46.6904 25.572)" fill="#0047AD"/>
<ellipse cx="46.6904" cy="48.1211" rx="2.67407" ry="2.59457" transform="rotate(90 46.6904 48.1211)" fill="#0047AD"/>
<ellipse cx="46.6904" cy="70.6697" rx="2.67407" ry="2.59457" transform="rotate(90 46.6904 70.6697)" fill="#0047AD"/>
<ellipse cx="24.8119" cy="3.02319" rx="2.67407" ry="2.59457" transform="rotate(90 24.8119 3.02319)" fill="#0047AD"/>
<ellipse cx="24.8119" cy="25.572" rx="2.67407" ry="2.59457" transform="rotate(90 24.8119 25.572)" fill="#0047AD"/>
<ellipse cx="24.8119" cy="48.1211" rx="2.67407" ry="2.59457" transform="rotate(90 24.8119 48.1211)" fill="#0047AD"/>
<ellipse cx="24.8119" cy="70.6699" rx="2.67407" ry="2.59457" transform="rotate(90 24.8119 70.6699)" fill="#0047AD"/>
<ellipse cx="2.93344" cy="3.02319" rx="2.67407" ry="2.59457" transform="rotate(90 2.93344 3.02319)" fill="#0047AD"/>
<ellipse cx="2.93344" cy="25.572" rx="2.67407" ry="2.59457" transform="rotate(90 2.93344 25.572)" fill="#0047AD"/>
<ellipse cx="2.93344" cy="48.1211" rx="2.67407" ry="2.59457" transform="rotate(90 2.93344 48.1211)" fill="#0047AD"/>
<ellipse cx="2.93344" cy="70.6699" rx="2.67407" ry="2.59457" transform="rotate(90 2.93344 70.6699)" fill="#0047AD"/>
<ellipse cx="112.448" cy="26.0232" rx="2.67407" ry="2.59457" transform="rotate(90 112.448 26.0232)" fill="#EC5870"/>
<ellipse cx="112.448" cy="48.572" rx="2.67407" ry="2.59457" transform="rotate(90 112.448 48.572)" fill="#EC5870"/>
<ellipse cx="112.448" cy="71.1211" rx="2.67407" ry="2.59457" transform="rotate(90 112.448 71.1211)" fill="#EC5870"/>
<ellipse cx="112.448" cy="93.6699" rx="2.67407" ry="2.59457" transform="rotate(90 112.448 93.6699)" fill="#EC5870"/>
<ellipse cx="90.5689" cy="26.0232" rx="2.67407" ry="2.59457" transform="rotate(90 90.5689 26.0232)" fill="#EC5870"/>
<ellipse cx="90.5689" cy="48.572" rx="2.67407" ry="2.59457" transform="rotate(90 90.5689 48.572)" fill="#EC5870"/>
<ellipse cx="90.5689" cy="71.1211" rx="2.67407" ry="2.59457" transform="rotate(90 90.5689 71.1211)" fill="#EC5870"/>
<ellipse cx="90.5689" cy="93.6697" rx="2.67407" ry="2.59457" transform="rotate(90 90.5689 93.6697)" fill="#EC5870"/>
<ellipse cx="68.6904" cy="26.0232" rx="2.67407" ry="2.59457" transform="rotate(90 68.6904 26.0232)" fill="#EC5870"/>
<ellipse cx="68.6904" cy="48.572" rx="2.67407" ry="2.59457" transform="rotate(90 68.6904 48.572)" fill="#EC5870"/>
<ellipse cx="68.6904" cy="71.1211" rx="2.67407" ry="2.59457" transform="rotate(90 68.6904 71.1211)" fill="#EC5870"/>
<ellipse cx="68.6904" cy="93.6697" rx="2.67407" ry="2.59457" transform="rotate(90 68.6904 93.6697)" fill="#EC5870"/>
<ellipse cx="46.8119" cy="26.0232" rx="2.67407" ry="2.59457" transform="rotate(90 46.8119 26.0232)" fill="#EC5870"/>
<ellipse cx="46.8119" cy="48.572" rx="2.67407" ry="2.59457" transform="rotate(90 46.8119 48.572)" fill="#EC5870"/>
<ellipse cx="46.8119" cy="71.1211" rx="2.67407" ry="2.59457" transform="rotate(90 46.8119 71.1211)" fill="#EC5870"/>
<ellipse cx="46.8119" cy="93.6699" rx="2.67407" ry="2.59457" transform="rotate(90 46.8119 93.6699)" fill="#EC5870"/>
<ellipse cx="24.9334" cy="26.0232" rx="2.67407" ry="2.59457" transform="rotate(90 24.9334 26.0232)" fill="#EC5870"/>
<ellipse cx="24.9334" cy="48.572" rx="2.67407" ry="2.59457" transform="rotate(90 24.9334 48.572)" fill="#EC5870"/>
<ellipse cx="24.9334" cy="71.1211" rx="2.67407" ry="2.59457" transform="rotate(90 24.9334 71.1211)" fill="#EC5870"/>
<ellipse cx="24.9334" cy="93.6699" rx="2.67407" ry="2.59457" transform="rotate(90 24.9334 93.6699)" fill="#EC5870"/>
<ellipse cx="101.109" cy="12.6741" rx="2.67407" ry="2.59457" transform="rotate(90 101.109 12.6741)" fill="white"/>
<ellipse cx="101.109" cy="35.2229" rx="2.67407" ry="2.59457" transform="rotate(90 101.109 35.2229)" fill="white"/>
<ellipse cx="101.109" cy="57.772" rx="2.67407" ry="2.59457" transform="rotate(90 101.109 57.772)" fill="white"/>
<ellipse cx="101.109" cy="80.3208" rx="2.67407" ry="2.59457" transform="rotate(90 101.109 80.3208)" fill="white"/>
<ellipse cx="79.23" cy="12.6741" rx="2.67407" ry="2.59457" transform="rotate(90 79.23 12.6741)" fill="white"/>
<ellipse cx="79.23" cy="35.2229" rx="2.67407" ry="2.59457" transform="rotate(90 79.23 35.2229)" fill="white"/>
<ellipse cx="79.23" cy="57.772" rx="2.67407" ry="2.59457" transform="rotate(90 79.23 57.772)" fill="white"/>
<ellipse cx="79.23" cy="80.3206" rx="2.67407" ry="2.59457" transform="rotate(90 79.23 80.3206)" fill="white"/>
<ellipse cx="57.3515" cy="12.6741" rx="2.67407" ry="2.59457" transform="rotate(90 57.3515 12.6741)" fill="white"/>
<ellipse cx="57.3515" cy="35.2229" rx="2.67407" ry="2.59457" transform="rotate(90 57.3515 35.2229)" fill="white"/>
<ellipse cx="57.3515" cy="57.772" rx="2.67407" ry="2.59457" transform="rotate(90 57.3515 57.772)" fill="white"/>
<ellipse cx="57.3515" cy="80.3206" rx="2.67407" ry="2.59457" transform="rotate(90 57.3515 80.3206)" fill="white"/>
<ellipse cx="35.4731" cy="12.6741" rx="2.67407" ry="2.59457" transform="rotate(90 35.4731 12.6741)" fill="white"/>
<ellipse cx="35.4731" cy="35.2229" rx="2.67407" ry="2.59457" transform="rotate(90 35.4731 35.2229)" fill="white"/>
<ellipse cx="35.4731" cy="57.772" rx="2.67407" ry="2.59457" transform="rotate(90 35.4731 57.772)" fill="white"/>
<ellipse cx="35.4731" cy="80.3208" rx="2.67407" ry="2.59457" transform="rotate(90 35.4731 80.3208)" fill="white"/>
<ellipse cx="13.5946" cy="12.6741" rx="2.67407" ry="2.59457" transform="rotate(90 13.5946 12.6741)" fill="white"/>
<ellipse cx="13.5946" cy="35.2229" rx="2.67407" ry="2.59457" transform="rotate(90 13.5946 35.2229)" fill="white"/>
<ellipse cx="13.5946" cy="57.772" rx="2.67407" ry="2.59457" transform="rotate(90 13.5946 57.772)" fill="white"/>
<ellipse cx="13.5946" cy="80.3208" rx="2.67407" ry="2.59457" transform="rotate(90 13.5946 80.3208)" fill="white"/>
</svg>
