<?xml version="1.0" encoding="utf-8"?>
<!-- Generator: Adobe Illustrator 25.1.0, SVG Export Plug-In . SVG Version: 6.00 Build 0)  -->
<svg version="1.1" id="Calque_5" xmlns="http://www.w3.org/2000/svg" xmlns:xlink="http://www.w3.org/1999/xlink" x="0px" y="0px"
	 viewBox="0 0 204 44" style="enable-background:new 0 0 204 44;" xml:space="preserve">
<style type="text/css">
	.st0{fill:#B20E10;}
</style>
<g>
	<g>
		<g>
			<path class="st0" d="M87.51,11.59c5.18,0,7.64,2.96,7.64,2.96l-2.18,3.39c0,0-2.07-2.14-5.18-2.14c-3.66,0-6.04,2.77-6.04,6.16
				c0,3.35,2.42,6.24,6.2,6.24c3.35,0,5.85-2.53,5.85-2.53l1.91,3.51c0,0-2.85,3.24-8.19,3.24c-6.59,0-10.8-4.64-10.8-10.41
				C76.71,16.35,80.92,11.59,87.51,11.59z"/>
		</g>
		<path class="st0" d="M117.12,12.06h4.76v3.43c0,0.74-0.08,1.4-0.08,1.4h0.08c0.9-2.85,3.27-5.11,6.32-5.11
			c0.47,0,0.9,0.08,0.9,0.08v4.87c0,0-0.51-0.08-1.17-0.08c-2.1,0-4.48,1.21-5.42,4.17c-0.31,0.97-0.43,2.07-0.43,3.24v7.87h-4.95
			V12.06z"/>
		<path class="st0" d="M130.82,12.06h4.76v2.3c0,0.74-0.08,1.36-0.08,1.36h0.08c0.97-1.95,3.35-4.13,6.47-4.13
			c3.04,0,4.99,1.4,5.81,4.09h0.08c1.09-2.14,3.66-4.09,6.78-4.09c4.13,0,6.51,2.34,6.51,7.56v12.79h-4.95V20.09
			c0-2.26-0.43-3.98-2.73-3.98c-2.53,0-4.21,2.03-4.79,4.52c-0.2,0.78-0.23,1.64-0.23,2.57v8.73h-4.95V20.09
			c0-2.14-0.35-3.98-2.69-3.98c-2.57,0-4.25,2.03-4.87,4.56c-0.19,0.74-0.23,1.64-0.23,2.53v8.73h-4.95V12.06z"/>
		<path class="st0" d="M173.47,11.59c5.73,0,8.81,4.17,8.81,9.43c0,0.58-0.12,1.91-0.12,1.91h-13.72c0.31,3.47,3,5.26,5.96,5.26
			c3.2,0,5.73-2.18,5.73-2.18l1.91,3.55c0,0-3.04,2.85-7.99,2.85c-6.59,0-10.68-4.76-10.68-10.41
			C163.38,15.88,167.55,11.59,173.47,11.59z M177.29,19.54c-0.08-2.69-1.75-4.13-3.94-4.13c-2.53,0-4.29,1.56-4.76,4.13H177.29z"/>
		<path class="st0" d="M184.75,12.06h4.76v2.3c0,0.74-0.08,1.36-0.08,1.36h0.08c0.86-1.68,3.04-4.13,7.06-4.13
			c4.41,0,6.9,2.3,6.9,7.56v12.79h-4.91V20.17c0-2.42-0.62-4.05-3.16-4.05c-2.65,0-4.6,1.68-5.34,4.05
			c-0.27,0.82-0.35,1.72-0.35,2.65v9.12h-4.95V12.06z"/>
		<g>
			<path class="st0" d="M108.43,30.11c0-0.77,0.08-1.39,0.08-1.39h-0.08c0.04,0-1.5,2.88-5.97,2.88c-3.51,0-6.55-1.74-6.67-5.54
				c-0.19-6.24,10.05-6.67,13.24-6.67l0.93-0.02V19.1c0-2.58-3.5-3.45-5.66-3.45c-2.81,0-5.4,1.89-5.4,1.89l-1.85-3.51
				c0,0,3.04-2.43,7.71-2.43c5.16,0,8.17,2.85,8.17,7.82 M105.4,28.72c2.54-0.44,4.48-2.83,4.96-5.51v-0.46c0,0-9.32-0.99-9.64,3.08
				C100.62,27.14,102.44,29.23,105.4,28.72z"/>
			<path class="st0" d="M97.06,14.04c0.96-0.84,3.78-2.22,7.44-2.43c6.5-0.37,10.88,4.71,10.68,10.29
				c-0.22,6-4.47,10.48-10.49,10.48c-4.03,0-6.31-1.38-7.37-2.46c-0.72-0.73-1.12-1.69-1.3-2.31c-0.16-0.54-0.27-1.22-0.22-2
				c0.15-2,2.5-0.08,2.5-0.08s2.32,3.36,5.63,3.36c1.84,0,3.65-0.8,4.75-2.1c1.14-1.35,1.74-3.21,1.74-4.89
				c0-3.35-2.57-6.11-6.19-6.11c-3.08,0-5.33,1.77-5.33,1.77L97.06,14.04z"/>
		</g>
	</g>
	<g>
		<path class="st0" d="M22.13,1C32.49,1,37.4,6.92,37.4,6.92l-4.43,6.33c0,0-4.06-3.83-10.3-3.83c-7.33,0-12.08,5.53-12.08,12.31
			c0,6.7,4.83,12.47,12.39,12.47c6.7,0,11.69-5.07,11.69-5.07l3.82,7.01c0,0-5.69,6.47-16.37,6.47c-13.17,0-21.59-9.27-21.59-20.81
			C0.54,10.51,8.95,1,22.13,1z"/>
		<g>
			<path class="st0" d="M51.88,35.61c0.08,0-3.04,5.82-12.07,5.82c-7.08,0-13.23-3.51-13.47-11.19
				c-0.39-12.61,20.3-13.47,26.76-13.47l1.88-0.05v-0.54c0-5.22-7.07-6.96-11.43-6.96c-5.68,0-10.58,4.03-10.58,4.03l-4.06-7.31
				c0,0,6.15-4.91,15.57-4.91c10.43,0,16.51,5.76,16.51,15.81 M45.76,35.61c5.14-0.88,9.06-5.72,10.01-11.14v-0.93
				c0,0-18.84-2-19.47,6.23C36.1,32.41,39.78,36.64,45.76,35.61z"/>
			<path class="st0" d="M28.92,5.95c1.95-1.7,7.63-4.49,15.04-4.91c13.14-0.75,21.98,9.51,21.57,20.79
				C65.08,33.94,56.49,43,44.33,43c-8.14,0-12.75-2.78-14.89-4.97c-1.44-1.48-2.25-3.41-2.63-4.67c-0.32-1.09-0.55-2.46-0.44-4.05
				c0.29-4.03,5.04-0.17,5.04-0.17s4.69,6.79,11.38,6.79c3.71,0,7.38-1.62,9.6-4.25c2.3-2.73,3.52-6.48,3.52-9.89
				c0-6.77-5.19-12.35-12.51-12.35c-6.23,0-10.45,3.8-10.45,3.8L28.92,5.95z"/>
		</g>
	</g>
</g>
</svg>
