<svg width="1919" height="857" viewBox="0 0 1919 857" fill="none" xmlns="http://www.w3.org/2000/svg">
<path d="M0 0H1919V857H0V0Z" fill="white"/>
<mask id="mask0_555_22412" style="mask-type:alpha" maskUnits="userSpaceOnUse" x="0" y="0" width="1920" height="857">
<rect width="1919" height="857" fill="white"/>
</mask>
<g mask="url(#mask0_555_22412)">
<g opacity="0.15">
<g clip-path="url(#clip0_555_22412)">
<path d="M149.578 468.124C10.6353 468.124 -102 580.137 -102 718.311C-102 856.486 10.6353 968.498 149.578 968.498C288.521 968.498 401.156 856.486 401.156 718.311C401.156 580.137 288.521 468.124 149.578 468.124Z" fill="#0047AD"/>
<path d="M261.961 718.311C261.961 747.952 250.121 776.379 229.045 797.338C207.969 818.298 179.384 830.073 149.578 830.073C119.783 830.057 91.2133 818.275 70.1504 797.317C49.0876 776.36 37.2556 747.942 37.2556 718.311C37.2876 688.707 49.1357 660.326 70.1968 639.404C91.2579 618.482 119.809 606.73 149.578 606.73C179.353 606.73 207.91 618.48 228.981 639.4C250.052 660.321 261.913 688.701 261.961 718.311Z" fill="#076AD0"/>
<path d="M-102 -32.2504L-102 468.124L401.156 468.124L401.156 -32.2504L-102 -32.2504Z" fill="#0A335B"/>
<path d="M401.156 468.124L401.156 968.498L904.313 968.498L904.313 468.124L401.156 468.124Z" fill="#0A335B"/>
<path d="M545.062 611.234L545.062 825.389L760.407 825.389L760.407 611.234L545.062 611.234Z" fill="#E9E5D9"/>
<path d="M401.157 -32.2504L401.156 468.124L904.313 468.124L904.313 -32.2504L401.157 -32.2504Z" fill="#E9E5D9"/>
<path d="M401.157 -32.2504L904.313 -32.2504L904.313 468.124C770.868 468.124 642.888 415.406 548.528 321.568C454.167 227.729 401.157 100.457 401.157 -32.2504Z" fill="#0047AD"/>
<path d="M904.313 468.124L904.313 968.498L1407.47 968.498L1407.47 468.124L904.313 468.124Z" fill="#076AD0"/>
<path d="M904.313 -32.2503L904.313 468.124L1407.47 468.124L1407.47 -32.2503L904.313 -32.2503Z" fill="#F9FBFC"/>
<path d="M904.313 468.124L904.313 -32.2503L1407.71 -32.2503C1407.71 100.457 1354.7 227.729 1260.34 321.568C1165.98 415.406 1038 468.124 904.554 468.124L904.313 468.124Z" fill="#0A335B"/>
<path d="M904.374 -32.2508L904.374 215.534C838.291 215.534 774.916 189.428 728.189 142.96C681.462 96.4911 655.211 33.4659 655.211 -32.2508L904.374 -32.2508Z" fill="#F9FBFC"/>
<path d="M1153.48 -32.2508C1153.48 33.4555 1127.23 96.4715 1080.52 142.939C1033.81 189.406 970.445 215.518 904.373 215.534L904.373 -32.2508L1153.48 -32.2508Z" fill="#076AD0"/>
<path d="M1407.53 468.124L1407.53 968.499L1910.69 968.499L1910.69 468.124L1407.53 468.124Z" fill="#0A335B"/>
<path d="M1910.69 468.124L1910.69 968.499L1407.53 468.124L1910.69 468.124Z" fill="#0A335B"/>
<path d="M1407.71 468.124C1407.71 402.414 1420.73 337.347 1446.01 276.639C1471.3 215.931 1508.36 160.77 1555.08 114.306C1601.8 67.8419 1657.27 30.9845 1718.32 5.83833C1779.36 -19.3078 1844.79 -32.2503 1910.87 -32.2503L1910.87 468.124L1407.71 468.124Z" fill="#0047AD"/>
<path d="M1910.69 968.498C2044.13 968.498 2172.11 915.781 2266.47 821.942C2360.83 728.104 2413.84 600.832 2413.84 468.124C2280.4 468.14 2152.43 520.863 2058.08 614.698C1963.72 708.533 1910.7 835.796 1910.69 968.498Z" fill="#0047AD"/>
<path d="M1910.69 -32.2508C1910.69 100.457 1963.7 227.729 2058.06 321.567C2152.42 415.406 2280.4 468.124 2413.84 468.124C2413.84 335.416 2360.83 208.144 2266.47 114.306C2172.11 20.4671 2044.13 -32.2508 1910.69 -32.2508Z" fill="#076AD0"/>
<path d="M1085.48 656.215C1085.48 649.788 1082.91 643.624 1078.34 639.08C1073.77 634.536 1067.57 631.983 1061.11 631.983C1054.65 631.983 1048.45 634.536 1043.88 639.08C1039.31 643.624 1036.75 649.788 1036.75 656.215C1036.75 662.641 1039.31 668.805 1043.88 673.349C1048.45 677.894 1054.65 680.447 1061.11 680.447C1067.57 680.447 1073.77 677.894 1078.34 673.349C1082.91 668.805 1085.48 662.641 1085.48 656.215Z" fill="#F9FBFC"/>
<path d="M1085.48 780.888C1085.48 774.461 1082.91 768.298 1078.34 763.753C1073.77 759.209 1067.57 756.656 1061.11 756.656C1054.65 756.656 1048.45 759.209 1043.88 763.753C1039.31 768.298 1036.75 774.461 1036.75 780.888C1036.75 787.315 1039.31 793.478 1043.88 798.023C1048.45 802.567 1054.65 805.12 1061.11 805.12C1067.57 805.12 1073.77 802.567 1078.34 798.023C1082.91 793.478 1085.48 787.315 1085.48 780.888Z" fill="#F9FBFC"/>
<path d="M1085.48 531.181C1085.46 525.63 1083.51 520.257 1079.96 515.974C1076.41 511.692 1071.47 508.765 1065.99 507.692C1060.52 506.618 1054.84 507.464 1049.92 510.085C1045 512.707 1041.14 516.942 1039.01 522.071C1036.87 527.2 1036.59 532.905 1038.2 538.219C1039.82 543.532 1043.24 548.124 1047.87 551.215C1052.51 554.305 1058.08 555.703 1063.64 555.171C1069.19 554.639 1074.39 552.21 1078.35 548.297C1082.9 543.746 1085.46 537.596 1085.48 531.181Z" fill="#F9FBFC"/>
<path d="M985.415 656.215C985.415 649.78 982.844 643.609 978.269 639.059C973.694 634.509 967.488 631.953 961.018 631.953C954.547 631.953 948.342 634.509 943.767 639.059C939.191 643.609 936.621 649.78 936.621 656.215C936.621 662.649 939.191 668.821 943.767 673.371C948.342 677.921 954.547 680.477 961.018 680.477C967.488 680.477 973.694 677.921 978.269 673.371C982.844 668.821 985.415 662.649 985.415 656.215Z" fill="#F9FBFC"/>
<path d="M985.415 780.888C985.415 774.453 982.844 768.282 978.269 763.732C973.694 759.182 967.488 756.626 961.018 756.626C954.547 756.626 948.342 759.182 943.767 763.732C939.191 768.282 936.621 774.453 936.621 780.888C936.621 787.323 939.191 793.494 943.767 798.044C948.342 802.594 954.547 805.15 961.018 805.15C967.488 805.15 973.694 802.594 978.269 798.044C982.844 793.494 985.415 787.323 985.415 780.888Z" fill="#F9FBFC"/>
<path d="M985.415 531.181C985.331 527.276 984.29 523.45 982.384 520.035C980.478 516.62 977.763 513.719 974.474 511.583C971.186 509.447 967.423 508.14 963.513 507.777C959.602 507.413 955.661 508.004 952.032 509.497C948.402 510.99 945.194 513.34 942.684 516.345C940.174 519.35 938.439 522.917 937.629 526.739C936.819 530.561 936.958 534.522 938.035 538.279C939.111 542.035 941.092 545.474 943.807 548.297C946.055 550.566 948.734 552.369 951.688 553.599C954.643 554.829 957.814 555.463 961.018 555.463C964.221 555.463 967.392 554.829 970.347 553.599C973.302 552.369 975.981 550.566 978.228 548.297C980.507 546.06 982.316 543.395 983.549 540.456C984.783 537.518 985.417 534.365 985.415 531.181Z" fill="#F9FBFC"/>
<path d="M1185.6 656.215C1185.6 649.788 1183.04 643.624 1178.47 639.08C1173.9 634.536 1167.7 631.983 1161.24 631.983C1154.77 631.983 1148.58 634.536 1144.01 639.08C1139.44 643.624 1136.87 649.788 1136.87 656.215C1136.87 662.641 1139.44 668.805 1144.01 673.349C1148.58 677.894 1154.77 680.447 1161.24 680.447C1167.7 680.447 1173.9 677.894 1178.47 673.349C1183.04 668.805 1185.6 662.641 1185.6 656.215Z" fill="#F9FBFC"/>
<path d="M1185.6 780.888C1185.6 774.461 1183.04 768.298 1178.47 763.753C1173.9 759.209 1167.7 756.656 1161.24 756.656C1154.77 756.656 1148.58 759.209 1144.01 763.753C1139.44 768.298 1136.87 774.461 1136.87 780.888C1136.87 787.315 1139.44 793.478 1144.01 798.023C1148.58 802.567 1154.77 805.12 1161.24 805.12C1167.7 805.12 1173.9 802.567 1178.47 798.023C1183.04 793.478 1185.6 787.315 1185.6 780.888Z" fill="#F9FBFC"/>
<path d="M1185.6 531.181C1185.52 527.276 1184.48 523.45 1182.57 520.035C1180.67 516.62 1177.95 513.719 1174.66 511.583C1171.37 509.447 1167.61 508.141 1163.7 507.777C1159.79 507.414 1155.85 508.004 1152.22 509.497C1148.59 510.99 1145.38 513.341 1142.87 516.345C1140.36 519.35 1138.63 522.918 1137.82 526.74C1137.01 530.562 1137.15 534.522 1138.22 538.279C1139.3 542.035 1141.28 545.474 1143.99 548.297C1148.59 552.828 1154.79 555.392 1161.27 555.443C1167.67 555.443 1173.82 552.912 1178.35 548.407C1182.88 543.902 1185.42 537.792 1185.42 531.421" fill="#F9FBFC"/>
<path d="M1285.73 656.215C1285.73 649.788 1283.16 643.624 1278.59 639.08C1274.02 634.536 1267.82 631.983 1261.36 631.983C1254.9 631.983 1248.7 634.536 1244.13 639.08C1239.56 643.624 1236.99 649.788 1236.99 656.215C1236.99 662.641 1239.56 668.805 1244.13 673.349C1248.7 677.894 1254.9 680.447 1261.36 680.447C1267.82 680.447 1274.02 677.894 1278.59 673.349C1283.16 668.805 1285.73 662.641 1285.73 656.215Z" fill="#F9FBFC"/>
<path d="M1285.73 780.888C1285.73 774.461 1283.16 768.298 1278.59 763.753C1274.02 759.209 1267.82 756.656 1261.36 756.656C1254.9 756.656 1248.7 759.209 1244.13 763.753C1239.56 768.298 1236.99 774.461 1236.99 780.888C1236.99 787.315 1239.56 793.478 1244.13 798.023C1248.7 802.567 1254.9 805.12 1261.36 805.12C1267.82 805.12 1274.02 802.567 1278.59 798.023C1283.16 793.478 1285.73 787.315 1285.73 780.888Z" fill="#F9FBFC"/>
<path d="M1285.73 531.181C1285.71 525.63 1283.76 520.257 1280.21 515.974C1276.65 511.692 1271.72 508.765 1266.24 507.692C1260.77 506.618 1255.08 507.464 1250.16 510.085C1245.24 512.707 1241.39 516.942 1239.25 522.071C1237.12 527.2 1236.83 532.905 1238.45 538.219C1240.07 543.532 1243.49 548.124 1248.12 551.215C1252.76 554.305 1258.33 555.703 1263.89 555.171C1269.44 554.639 1274.64 552.21 1278.6 548.297C1283.15 543.746 1285.71 537.596 1285.73 531.181Z" fill="#F9FBFC"/>
<path d="M1385.85 656.215C1385.85 649.788 1383.28 643.624 1378.71 639.08C1374.14 634.536 1367.95 631.983 1361.48 631.983C1355.02 631.983 1348.82 634.536 1344.25 639.08C1339.68 643.624 1337.12 649.788 1337.12 656.215C1337.12 662.641 1339.68 668.805 1344.25 673.349C1348.82 677.894 1355.02 680.447 1361.48 680.447C1367.95 680.447 1374.14 677.894 1378.71 673.349C1383.28 668.805 1385.85 662.641 1385.85 656.215Z" fill="#F9FBFC"/>
<path d="M1385.85 780.888C1385.85 774.461 1383.28 768.298 1378.71 763.754C1374.14 759.209 1367.95 756.656 1361.48 756.656C1355.02 756.656 1348.82 759.209 1344.25 763.754C1339.68 768.298 1337.12 774.461 1337.12 780.888C1337.12 787.315 1339.68 793.478 1344.25 798.023C1348.82 802.567 1355.02 805.12 1361.48 805.12C1367.95 805.12 1374.14 802.567 1378.71 798.023C1383.28 793.478 1385.85 787.315 1385.85 780.888Z" fill="#F9FBFC"/>
<path d="M1385.85 531.181C1385.83 525.63 1383.88 520.257 1380.33 515.974C1376.78 511.692 1371.84 508.765 1366.37 507.692C1360.89 506.618 1355.21 507.464 1350.29 510.085C1345.37 512.707 1341.51 516.942 1339.38 522.071C1337.24 527.2 1336.96 532.906 1338.58 538.219C1340.19 543.532 1343.61 548.124 1348.25 551.215C1352.88 554.305 1358.45 555.703 1364.01 555.171C1369.57 554.639 1374.77 552.21 1378.72 548.297C1383.27 543.746 1385.83 537.597 1385.85 531.181Z" fill="#F9FBFC"/>
</g>
</g>
</g>
<path d="M0 0H1919V857H0V0Z" fill="url(#paint0_linear_555_22412)"/>
<defs>
<linearGradient id="paint0_linear_555_22412" x1="959.5" y1="0" x2="959.5" y2="857" gradientUnits="userSpaceOnUse">
<stop stop-color="white"/>
<stop offset="0.328125" stop-color="white" stop-opacity="0.67"/>
<stop offset="0.703125" stop-color="white" stop-opacity="0.73"/>
<stop offset="1" stop-color="white"/>
</linearGradient>
<clipPath id="clip0_555_22412">
<rect width="926" height="1917" fill="white" transform="translate(1916 -69) rotate(90)"/>
</clipPath>
</defs>
</svg>
