<svg width="63" height="63" viewBox="0 0 63 63" fill="none" xmlns="http://www.w3.org/2000/svg">
<path d="M41.1613 31.0032C41.1613 25.4744 36.6794 20.9924 31.1505 20.9924C25.6217 20.9924 21.1397 25.4744 21.1397 31.0032C21.1397 36.532 25.6217 41.014 31.1505 41.014C36.6794 41.014 41.1613 36.532 41.1613 31.0032Z" stroke="white" stroke-width="4.01" stroke-miterlimit="10"/>
<path d="M55.2451 36.1807C57.9824 36.1807 60.2015 33.9617 60.2015 31.2243C60.2015 28.487 57.9824 26.2679 55.2451 26.2679C52.5078 26.2679 50.2888 28.487 50.2888 31.2243C50.2888 33.9617 52.5078 36.1807 55.2451 36.1807Z" stroke="white" stroke-width="4.01" stroke-miterlimit="10"/>
<path d="M7.20313 36.1807C9.94043 36.1807 12.1595 33.9617 12.1595 31.2243C12.1595 28.487 9.94043 26.2679 7.20313 26.2679C4.46582 26.2679 2.2468 28.487 2.2468 31.2243C2.2468 33.9617 4.46582 36.1807 7.20313 36.1807Z" stroke="white" stroke-width="4.01" stroke-miterlimit="10"/>
<path d="M31.224 60.2014C33.9613 60.2014 36.1803 57.9824 36.1803 55.2451C36.1803 52.5078 33.9613 50.2888 31.224 50.2888C28.4867 50.2888 26.2677 52.5078 26.2677 55.2451C26.2677 57.9824 28.4867 60.2014 31.224 60.2014Z" stroke="white" stroke-width="4.01" stroke-miterlimit="10"/>
<path d="M31.224 12.1595C33.9613 12.1595 36.1803 9.94046 36.1803 7.20316C36.1803 4.46587 33.9613 2.24685 31.224 2.24685C28.4867 2.24685 26.2677 4.46587 26.2677 7.20316C26.2677 9.94046 28.4867 12.1595 31.224 12.1595Z" stroke="white" stroke-width="4.01" stroke-miterlimit="10"/>
<path d="M31.2242 12.1593V21.7775" stroke="white" stroke-width="4.01" stroke-miterlimit="10"/>
<path d="M31.2242 41.0386V50.6569" stroke="white" stroke-width="4.01" stroke-miterlimit="10"/>
<path d="M50.485 31.3959H40.8668" stroke="white" stroke-width="4.01" stroke-miterlimit="10"/>
<path d="M21.6062 31.3959H11.988" stroke="white" stroke-width="4.01" stroke-miterlimit="10"/>
<path d="M10.8415 14.9367C13.0935 14.9367 14.9191 13.1111 14.9191 10.8591C14.9191 8.60715 13.0935 6.78156 10.8415 6.78156C8.58946 6.78156 6.76385 8.60715 6.76385 10.8591C6.76385 13.1111 8.58946 14.9367 10.8415 14.9367Z" stroke="white" stroke-opacity="0.4" stroke-width="4.01" stroke-miterlimit="10"/>
<path d="M50.7974 55.6664C53.0494 55.6664 54.875 53.8408 54.875 51.5888C54.875 49.3367 53.0494 47.5111 50.7974 47.5111C48.5454 47.5111 46.7198 49.3367 46.7198 51.5888C46.7198 53.8408 48.5454 55.6664 50.7974 55.6664Z" stroke="white" stroke-opacity="0.4" stroke-width="4.01" stroke-miterlimit="10"/>
<path d="M46.7362 10.6902C46.7362 12.9946 48.5203 14.8626 50.7211 14.8626C52.922 14.8626 54.7061 12.9946 54.7061 10.6902C54.7061 8.38585 52.922 6.5178 50.7211 6.5178C48.5203 6.5178 46.7362 8.38585 46.7362 10.6902Z" stroke="white" stroke-opacity="0.4" stroke-width="4.01" stroke-miterlimit="10"/>
<path d="M6.93258 51.6664C6.93258 53.9708 8.7167 55.8388 10.9175 55.8388C13.1183 55.8388 14.9025 53.9708 14.9025 51.6664C14.9025 49.362 13.1183 47.494 10.9175 47.494C8.7167 47.494 6.93258 49.362 6.93258 51.6664Z" stroke="white" stroke-opacity="0.4" stroke-width="4.01" stroke-miterlimit="10"/>
<path d="M24.7044 37.9475L14.2841 48.8342" stroke="white" stroke-opacity="0.4" stroke-width="4.01" stroke-miterlimit="10"/>
<path d="M37.571 24.6255L47.9913 13.7388" stroke="white" stroke-opacity="0.4" stroke-width="4.01" stroke-miterlimit="10"/>
<path d="M24.6213 25.348L13.982 14.6852" stroke="white" stroke-opacity="0.4" stroke-width="4.01" stroke-miterlimit="10"/>
<path d="M37.018 37.8618L47.6573 48.5246" stroke="white" stroke-opacity="0.4" stroke-width="4.01" stroke-miterlimit="10"/>
</svg>
