<svg width="61" height="69" viewBox="0 0 61 69" fill="none" xmlns="http://www.w3.org/2000/svg">
<path d="M50.7701 51.6585L39.3872 39.9128L50.7701 28.1928L55.4036 32.6747C57.3909 34.6041 58.5057 37.21 58.5057 39.9257C58.5057 42.6414 57.3909 45.2472 55.4036 47.1766L50.7701 51.6585Z" stroke="white" stroke-width="4.05" stroke-linecap="round" stroke-linejoin="round"/>
<path d="M12.0412 51.6585L7.40773 47.1766C5.42049 45.2472 4.30566 42.6414 4.30566 39.9257C4.30566 37.21 5.42049 34.6041 7.40773 32.6747L12.0412 28.1928L23.4242 39.9128L12.0412 51.6585Z" stroke="white" stroke-width="4.05" stroke-linecap="round" stroke-linejoin="round"/>
<path d="M31.4054 32.2369L19.2188 21.3155L23.8523 16.9367C25.8596 15.0177 28.5751 13.9406 31.4054 13.9406C34.2357 13.9406 36.9506 15.0177 38.9579 16.9367L43.592 21.4185L31.4054 32.2369Z" stroke="white" stroke-width="4.05" stroke-linecap="round" stroke-linejoin="round"/>
<path d="M23.8523 63.0176L19.2188 58.5357L31.4054 47.5886L43.592 58.5357L38.9579 63.0176C36.9506 64.9366 34.2357 66.0137 31.4054 66.0137C28.5751 66.0137 25.8596 64.9366 23.8523 63.0176V63.0176Z" stroke="white" stroke-width="4.05" stroke-linecap="round" stroke-linejoin="round"/>
<path d="M53.6356 8.95173L55.7242 8.02433C55.7841 8.00633 55.8367 7.97048 55.8739 7.92183C55.9111 7.87318 55.9314 7.81432 55.9314 7.75392C55.9314 7.69353 55.9111 7.63467 55.8739 7.58602C55.8367 7.53737 55.7841 7.50152 55.7242 7.48352L54.1443 7.0199C53.5362 6.83373 52.9888 6.49816 52.5567 6.04644C52.1246 5.59472 51.8221 5.04248 51.6798 4.44412L50.9305 1.14705C50.9305 1.07191 50.8994 0.999899 50.8441 0.946764C50.7889 0.893628 50.7137 0.863755 50.6356 0.863755C50.5574 0.863755 50.4822 0.893628 50.427 0.946764C50.3717 0.999899 50.3407 1.07191 50.3407 1.14705L49.5645 4.41834C49.4348 5.01802 49.1398 5.57329 48.7111 6.02631C48.2825 6.47933 47.7354 6.81353 47.1268 6.99411L45.5202 7.48352C45.4602 7.50152 45.4076 7.53737 45.3704 7.58602C45.3332 7.63467 45.3129 7.69353 45.3129 7.75392C45.3129 7.81432 45.3332 7.87318 45.3704 7.92183C45.4076 7.97048 45.4602 8.00633 45.5202 8.02433L47.6093 8.97736C48.0958 9.19424 48.5259 9.51251 48.8687 9.909C49.2115 10.3055 49.4583 10.7703 49.5913 11.2698L50.3943 14.3608C50.3943 14.4359 50.4253 14.508 50.4806 14.5611C50.5358 14.6142 50.611 14.6441 50.6892 14.6441C50.7673 14.6441 50.8425 14.6142 50.8978 14.5611C50.953 14.508 50.9834 14.4359 50.9834 14.3608L51.7871 11.2441C51.907 10.7572 52.1339 10.3007 52.4527 9.90523C52.7715 9.5098 53.1752 9.18475 53.6356 8.95173Z" fill="white"/>
<path d="M5.61243 63.7387L6.84436 63.1721C6.88698 63.1721 6.928 63.1558 6.95813 63.1269C6.98827 63.0979 7.00521 63.0586 7.00521 63.0176C7.00521 62.9766 6.98827 62.9373 6.95813 62.9083C6.928 62.8794 6.88698 62.8631 6.84436 62.8631L5.90733 62.5796C5.542 62.4647 5.21295 62.2628 4.95069 61.9926C4.68843 61.7224 4.50132 61.3926 4.40731 61.0342L3.9522 59.0766C3.93829 59.0432 3.91392 59.0145 3.88289 58.9943C3.85185 58.974 3.81509 58.9633 3.77761 58.9633C3.74013 58.9633 3.70402 58.974 3.67299 58.9943C3.64195 59.0145 3.61758 59.0432 3.60367 59.0766L3.14857 61.0342C3.06763 61.3914 2.88794 61.7211 2.62872 61.9885C2.36951 62.2559 2.0402 62.4513 1.67535 62.554L0.711516 62.8631C0.668896 62.8631 0.627876 62.8794 0.597739 62.9083C0.567602 62.9373 0.550659 62.9766 0.550659 63.0176C0.550659 63.0586 0.567602 63.0979 0.597739 63.1269C0.627876 63.1558 0.668896 63.1721 0.711516 63.1721L1.97026 63.7387C2.26081 63.8732 2.5166 64.0674 2.72027 64.3078C2.92394 64.5482 3.07035 64.8289 3.14857 65.1297L3.63048 66.9842C3.64439 67.0177 3.66876 67.0464 3.6998 67.0666C3.73083 67.0868 3.76694 67.0975 3.80442 67.0975C3.8419 67.0975 3.87866 67.0868 3.9097 67.0666C3.94073 67.0464 3.9651 67.0177 3.97901 66.9842L4.46092 65.1297C4.5345 64.8306 4.67574 64.5508 4.87484 64.3103C5.07393 64.0699 5.32578 63.8747 5.61243 63.7387Z" fill="white"/>
</svg>
