<svg width="44" height="30" viewBox="0 0 44 30" fill="none" xmlns="http://www.w3.org/2000/svg">
<path d="M2 14C1.44772 14 1 14.4477 1 15C1 15.5523 1.44772 16 2 16V14ZM42.7071 15.7071C43.0976 15.3166 43.0976 14.6834 42.7071 14.2929L36.3431 7.92893C35.9526 7.53841 35.3195 7.53841 34.9289 7.92893C34.5384 8.31946 34.5384 8.95262 34.9289 9.34315L40.5858 15L34.9289 20.6569C34.5384 21.0474 34.5384 21.6805 34.9289 22.0711C35.3195 22.4616 35.9526 22.4616 36.3431 22.0711L42.7071 15.7071ZM4 16C4.55228 16 5 15.5523 5 15C5 14.4477 4.55228 14 4 14V16ZM12 14C11.4477 14 11 14.4477 11 15C11 15.5523 11.4477 16 12 16V14ZM24 16C24.5523 16 25 15.5523 25 15C25 14.4477 24.5523 14 24 14V16ZM40 14C39.4477 14 39 14.4477 39 15C39 15.5523 39.4477 16 40 16V14ZM2 16H4V14H2V16ZM12 16H24V14H12V16ZM40 16H42V14H40V16ZM2 13C0.89543 13 0 13.8954 0 15C0 16.1046 0.89543 17 2 17V13ZM43.4142 16.4142C44.1953 15.6332 44.1953 14.3668 43.4142 13.5858L30.6863 0.857864C29.9052 0.0768156 28.6389 0.0768156 27.8579 0.857864C27.0768 1.63891 27.0768 2.90524 27.8579 3.68629L39.1716 15L27.8579 26.3137C27.0768 27.0948 27.0768 28.3611 27.8579 29.1421C28.6389 29.9232 29.9052 29.9232 30.6863 29.1421L43.4142 16.4142ZM4 17C5.10457 17 6 16.1046 6 15C6 13.8954 5.10457 13 4 13V17ZM12 13C10.8954 13 10 13.8954 10 15C10 16.1046 10.8954 17 12 17V13ZM24 17C25.1046 17 26 16.1046 26 15C26 13.8954 25.1046 13 24 13V17ZM40 13C38.8954 13 38 13.8954 38 15C38 16.1046 38.8954 17 40 17V13ZM2 17H4V13H2V17ZM12 17H24V13H12V17ZM40 17H42V13H40V17Z" fill="white"/>
</svg>
