<svg width="85" height="85" viewBox="0 0 85 85" fill="none" xmlns="http://www.w3.org/2000/svg">
  <circle cx="42.5" cy="42.5" r="42.5" fill="#FAC748"/>
  <path d="M55.1885 34.2744L56.8009 34.8658C56.8444 34.8883 56.8947 34.8952 56.9427 34.8855C56.9906 34.8758 57.0334 34.8499 57.0647 34.8123C57.0961 34.7747 57.1137 34.7276 57.1146 34.6786C57.1155 34.6297 57.0999 34.582 57.07 34.5433L56.4787 33.4411C56.2428 33.0325 56.1184 32.5689 56.1184 32.0971C56.1184 31.6252 56.2428 31.1617 56.4787 30.7531L57.8765 28.5489C58.0109 28.3338 57.8762 28.0919 57.5806 28.2263L55.3761 29.6242C54.9675 29.8601 54.504 29.9843 54.0321 29.9843C53.5603 29.9843 53.0967 29.8601 52.6881 29.6242L51.5593 29.0327C51.5168 29.0154 51.4706 29.0105 51.4254 29.0186C51.3803 29.0267 51.3385 29.0473 51.3047 29.0783C51.2708 29.1093 51.2464 29.1494 51.2344 29.1937C51.2225 29.2379 51.2235 29.2847 51.2371 29.3285L51.8284 30.9413C51.9676 31.3182 52.0205 31.7215 51.9832 32.1215C51.946 32.5216 51.8194 32.9082 51.6131 33.2529L50.3229 35.3766C50.2837 35.4193 50.2633 35.4759 50.2658 35.5339C50.2683 35.5919 50.2932 35.6465 50.336 35.6857C50.3788 35.7249 50.4355 35.7454 50.4935 35.7429C50.5515 35.7404 50.6059 35.715 50.6451 35.6722L52.7688 34.4088C53.1334 34.1985 53.5423 34.0769 53.9625 34.0536C54.3827 34.0302 54.8028 34.1058 55.1885 34.2744Z" fill="white" fill-opacity="0.4"/>
  <path d="M54.6772 39.57L57.7416 42.6344L42.3659 58.0101L26.9902 42.6344L42.3659 27.2318L46.2636 31.1295" stroke="white" stroke-width="4.05" stroke-linecap="round" stroke-linejoin="round"/>
  <path d="M25.2697 66.9073C22.475 64.9239 20.039 62.4787 18.0659 59.6768L25.2697 66.9073Z" fill="white"/>
  <path d="M25.2697 66.9073C22.475 64.9239 20.039 62.4787 18.0659 59.6768" stroke="white" stroke-width="4.05" stroke-linecap="round" stroke-linejoin="round"/>
  <path d="M55.8331 69.1387C53.0171 70.5803 49.9842 71.5518 46.8548 72.015L55.8331 69.1387Z" fill="white"/>
  <path d="M55.8331 69.1387C53.0171 70.5803 49.9842 71.5518 46.8548 72.015" stroke="white" stroke-width="4.05" stroke-linecap="round" stroke-linejoin="round"/>
  <path d="M71.7732 46.3978C71.3596 49.7506 70.3681 53.0065 68.8429 56.0209L71.7732 46.3978Z" fill="white"/>
  <path d="M71.7732 46.3978C71.3596 49.7506 70.3681 53.0065 68.8429 56.0209" stroke="white" stroke-width="4.05" stroke-linecap="round" stroke-linejoin="round"/>
  <path d="M69.0852 29.7853L69.5681 30.8857L69.0852 29.7853Z" fill="white"/>
  <path d="M69.0852 29.7853L69.5681 30.8857" stroke="white" stroke-width="4.05" stroke-linecap="round" stroke-linejoin="round"/>
  <path d="M60.0263 18.7109C62.3445 20.4287 64.4001 22.4752 66.1283 24.7857L60.0263 18.7109Z" fill="white"/>
  <path d="M60.0263 18.7109C62.3445 20.4287 64.4001 22.4752 66.1283 24.7857" stroke="white" stroke-width="4.05" stroke-linecap="round" stroke-linejoin="round"/>
  <path d="M28.9256 16.1303C31.8315 14.6424 34.966 13.652 38.1993 13.2003L28.9256 16.1303Z" fill="white"/>
  <path d="M28.9256 16.1303C31.8315 14.6424 34.966 13.652 38.1993 13.2003" stroke="white" stroke-width="4.05" stroke-linecap="round" stroke-linejoin="round"/>
  <path d="M12.9321 38.468C13.3964 35.2377 14.3857 32.105 15.8616 29.1942L12.9321 38.468Z" fill="white"/>
  <path d="M12.9321 38.468C13.3964 35.2377 14.3857 32.105 15.8616 29.1942" stroke="white" stroke-width="4.05" stroke-linecap="round" stroke-linejoin="round"/>
  <path d="M42.2315 56.5853V28.4147" stroke="white" stroke-width="4.05" stroke-linecap="round" stroke-linejoin="round"/>
  <path d="M57.6071 42.6344H42.5002" stroke="white" stroke-width="4.05" stroke-linecap="round" stroke-linejoin="round"/>
  <path d="M42.5003 16.6946C44.5193 16.6946 46.156 15.0579 46.156 13.0389C46.156 11.0198 44.5193 9.38312 42.5003 9.38312C40.4813 9.38312 38.8446 11.0198 38.8446 13.0389C38.8446 15.0579 40.4813 16.6946 42.5003 16.6946Z" stroke="white" stroke-width="4.05" stroke-linecap="round" stroke-linejoin="round"/>
  <path d="M42.5003 75.6169C44.5193 75.6169 46.156 73.9801 46.156 71.9611C46.156 69.9421 44.5193 68.3054 42.5003 68.3054C40.4813 68.3054 38.8446 69.9421 38.8446 71.9611C38.8446 73.9801 40.4813 75.6169 42.5003 75.6169Z" stroke="white" stroke-width="4.05" stroke-linecap="round" stroke-linejoin="round"/>
  <path d="M71.9614 46.1558C73.9804 46.1558 75.6172 44.519 75.6172 42.4999C75.6172 40.4809 73.9804 38.8441 71.9614 38.8441C69.9424 38.8441 68.3057 40.4809 68.3057 42.4999C68.3057 44.519 69.9424 46.1558 71.9614 46.1558Z" stroke="white" stroke-width="4.05" stroke-linecap="round" stroke-linejoin="round"/>
  <path d="M13.0389 46.1558C15.0579 46.1558 16.6947 44.519 16.6947 42.4999C16.6947 40.4809 15.0579 38.8441 13.0389 38.8441C11.0199 38.8441 9.38318 40.4809 9.38318 42.4999C9.38318 44.519 11.0199 46.1558 13.0389 46.1558Z" stroke="white" stroke-width="4.05" stroke-linecap="round" stroke-linejoin="round"/>
</svg>
