<svg width="85" height="85" viewBox="0 0 85 85" fill="none" xmlns="http://www.w3.org/2000/svg">
  <circle cx="42.5" cy="42.5" r="42.5" fill="#FF6B6B"/>
  <path d="M52.1613 42.0032C52.1613 36.4744 47.6794 31.9924 42.1505 31.9924C36.6217 31.9924 32.1397 36.4744 32.1397 42.0032C32.1397 47.532 36.6217 52.014 42.1505 52.014C47.6794 52.014 52.1613 47.532 52.1613 42.0032Z" stroke="white" stroke-width="4.01" stroke-miterlimit="10"/>
  <path d="M66.2451 47.1807C68.9824 47.1807 71.2015 44.9617 71.2015 42.2243C71.2015 39.487 68.9824 37.2679 66.2451 37.2679C63.5078 37.2679 61.2888 39.487 61.2888 42.2243C61.2888 44.9617 63.5078 47.1807 66.2451 47.1807Z" stroke="white" stroke-width="4.01" stroke-miterlimit="10"/>
  <path d="M18.2031 47.1807C20.9404 47.1807 23.1595 44.9617 23.1595 42.2243C23.1595 39.487 20.9404 37.2679 18.2031 37.2679C15.4658 37.2679 13.2468 39.487 13.2468 42.2243C13.2468 44.9617 15.4658 47.1807 18.2031 47.1807Z" stroke="white" stroke-width="4.01" stroke-miterlimit="10"/>
  <path d="M42.224 71.2014C44.9613 71.2014 47.1803 68.9824 47.1803 66.2451C47.1803 63.5078 44.9613 61.2888 42.224 61.2888C39.4867 61.2888 37.2677 63.5078 37.2677 66.2451C37.2677 68.9824 39.4867 71.2014 42.224 71.2014Z" stroke="white" stroke-width="4.01" stroke-miterlimit="10"/>
  <path d="M42.224 23.1595C44.9613 23.1595 47.1803 20.9405 47.1803 18.2032C47.1803 15.4659 44.9613 13.2469 42.224 13.2469C39.4867 13.2469 37.2677 15.4659 37.2677 18.2032C37.2677 20.9405 39.4867 23.1595 42.224 23.1595Z" stroke="white" stroke-width="4.01" stroke-miterlimit="10"/>
  <path d="M42.2242 23.1593V32.7775" stroke="white" stroke-width="4.01" stroke-miterlimit="10"/>
  <path d="M42.2242 52.0386V61.6569" stroke="white" stroke-width="4.01" stroke-miterlimit="10"/>
  <path d="M61.485 42.3959H51.8668" stroke="white" stroke-width="4.01" stroke-miterlimit="10"/>
  <path d="M32.6062 42.3959H22.988" stroke="white" stroke-width="4.01" stroke-miterlimit="10"/>
  <path d="M21.8415 25.9367C24.0935 25.9367 25.9191 24.1111 25.9191 21.8591C25.9191 19.6071 24.0935 17.7816 21.8415 17.7816C19.5895 17.7816 17.7639 19.6071 17.7639 21.8591C17.7639 24.1111 19.5895 25.9367 21.8415 25.9367Z" stroke="white" stroke-opacity="0.4" stroke-width="4.01" stroke-miterlimit="10"/>
  <path d="M61.7974 66.6664C64.0494 66.6664 65.875 64.8408 65.875 62.5888C65.875 60.3367 64.0494 58.5111 61.7974 58.5111C59.5454 58.5111 57.7198 60.3367 57.7198 62.5888C57.7198 64.8408 59.5454 66.6664 61.7974 66.6664Z" stroke="white" stroke-opacity="0.4" stroke-width="4.01" stroke-miterlimit="10"/>
  <path d="M57.7362 21.6902C57.7362 23.9946 59.5203 25.8626 61.7211 25.8626C63.922 25.8626 65.7061 23.9946 65.7061 21.6902C65.7061 19.3859 63.922 17.5178 61.7211 17.5178C59.5203 17.5178 57.7362 19.3859 57.7362 21.6902Z" stroke="white" stroke-opacity="0.4" stroke-width="4.01" stroke-miterlimit="10"/>
  <path d="M17.9326 62.6664C17.9326 64.9708 19.7167 66.8388 21.9175 66.8388C24.1183 66.8388 25.9025 64.9708 25.9025 62.6664C25.9025 60.362 24.1183 58.494 21.9175 58.494C19.7167 58.494 17.9326 60.362 17.9326 62.6664Z" stroke="white" stroke-opacity="0.4" stroke-width="4.01" stroke-miterlimit="10"/>
  <path d="M35.7044 48.9475L25.2841 59.8342" stroke="white" stroke-opacity="0.4" stroke-width="4.01" stroke-miterlimit="10"/>
  <path d="M48.571 35.6255L58.9913 24.7388" stroke="white" stroke-opacity="0.4" stroke-width="4.01" stroke-miterlimit="10"/>
  <path d="M35.6213 36.348L24.982 25.6852" stroke="white" stroke-opacity="0.4" stroke-width="4.01" stroke-miterlimit="10"/>
  <path d="M48.018 48.8618L58.6573 59.5246" stroke="white" stroke-opacity="0.4" stroke-width="4.01" stroke-miterlimit="10"/>
</svg>
