<svg width="1920" height="1022" viewBox="0 0 1920 1022" fill="none" xmlns="http://www.w3.org/2000/svg">
  <mask id="mask0_0_1" style="mask-type:alpha" maskUnits="userSpaceOnUse" x="0" y="0" width="960" height="1022">
    <rect width="960" height="1021.87" fill="#0047AD"/>
  </mask>
  <g mask="url(#mask0_0_1)">
    <g opacity="0.3">
      <mask id="mask1_0_1" style="mask-type:alpha" maskUnits="userSpaceOnUse" x="0" y="0" width="1482" height="849">
        <rect width="1481.89" height="849" fill="#C4C4C4"/>
      </mask>
      <g mask="url(#mask1_0_1)">
        <g clip-path="url(#clip0_0_1)">
          <path d="M111.752 827.082C111.752 920.817 74.3166 1010.71 7.67934 1077C-58.9579 1143.28 -149.339 1180.53 -243.584 1180.54L-243.584 827.082L111.752 827.082Z" fill="#0069FF"/>
          <path d="M-243.627 120.25L-243.627 473.666L111.71 473.666L111.71 120.25L-243.627 120.25Z" fill="#00398B"/>
          <path d="M-243.627 120.25L111.71 120.25L111.71 473.666C17.4685 473.666 -72.9127 436.431 -139.551 370.153C-206.19 303.875 -243.627 213.982 -243.627 120.25V120.25Z" fill="#0069FF"/>
          <path d="M-243.627 120.25C-243.627 26.5183 -206.19 -63.3744 -139.551 -129.653C-72.9126 -195.931 17.4685 -233.166 111.71 -233.166L111.71 120.25L-243.627 120.25Z" fill="#002965"/>
          <path d="M111.71 473.666L111.71 827.082L467.046 827.082L467.046 473.666L111.71 473.666Z" fill="#002965"/>
          <path d="M111.71 120.25L111.71 473.666L467.046 473.666L467.046 120.25L111.71 120.25Z" fill="#1F7BFF"/>
          <path d="M289.378 827.082C191.254 827.082 111.71 906.197 111.71 1003.79C111.71 1101.38 191.254 1180.5 289.378 1180.5C387.501 1180.5 467.046 1101.38 467.046 1003.79C467.046 906.197 387.501 827.082 289.378 827.082Z" fill="#0047AD"/>
          <path d="M822.425 827.082C822.431 873.497 813.244 919.458 795.389 962.341C777.534 1005.22 751.361 1044.19 718.365 1077.01C685.368 1109.83 646.194 1135.87 603.08 1153.63C559.966 1171.4 513.756 1180.54 467.089 1180.54L467.089 827.082L822.425 827.082Z" fill="#00398B"/>
          <path d="M467.089 473.666L467.089 827.082L822.425 827.082L822.425 473.666L467.089 473.666Z" fill="#0047AD"/>
          <path d="M467.217 473.666C467.217 427.255 476.408 381.298 494.265 338.42C512.122 295.541 538.296 256.581 571.292 223.763C604.288 190.946 643.46 164.913 686.572 147.152C729.683 129.391 775.89 120.25 822.553 120.25L822.553 473.666L467.217 473.666Z" fill="#0069FF"/>
          <path d="M822.425 473.666L822.425 827.082L467.089 473.666L822.425 473.666Z" fill="#0047AD" fill-opacity="0.7"/>
          <path d="M-243.627 473.666L-243.627 827.082L111.71 827.082L111.71 473.666L-243.627 473.666Z" fill="#0047AD"/>
          <path d="M-141.998 574.745L-141.998 726.003L10.0815 726.003L10.0815 574.745L-141.998 574.745Z" fill="#00398B"/>
          <path d="M111.71 -233.166L111.71 120.25L467.046 120.25L467.046 -233.166L111.71 -233.166Z" fill="#1F7BFF"/>
          <path d="M111.71 473.666L111.71 120.25L467.217 120.25C467.217 213.982 429.78 303.874 363.141 370.153C296.503 436.431 206.121 473.666 111.88 473.666L111.71 473.666Z" fill="#0047AD" fill-opacity="0.8"/>
          <path d="M111.71 120.25L111.71 -233.166C158.387 -233.188 204.612 -224.063 247.743 -206.313C290.875 -188.562 330.067 -162.533 363.081 -129.713C396.095 -96.8929 422.284 -57.9251 440.152 -15.0356C458.02 27.8539 467.217 73.8246 467.217 120.25V120.25L111.71 120.25Z" fill="#0069FF"/>
          <path d="M111.752 120.25L111.752 295.261C65.0843 295.261 20.3277 276.822 -12.6717 244.001C-45.671 211.18 -64.2098 166.666 -64.2098 120.25L111.752 120.25Z" fill="#1F7BFF"/>
          <path d="M-64.2098 120.25C-64.2098 73.8342 -45.671 29.3193 -12.6717 -3.50174C20.3277 -36.3228 65.0843 -54.7614 111.752 -54.7614L111.752 120.25L-64.2098 120.25Z" fill="#0069FF"/>
          <path d="M287.672 120.25C287.672 166.658 269.139 211.167 236.149 243.986C203.159 276.806 158.413 295.25 111.752 295.261L111.752 120.25L287.672 120.25Z" fill="#002965"/>
          <path d="M287.672 120.25L111.752 120.25L111.752 -54.7611C158.413 -54.7499 203.159 -36.3065 236.149 -3.48675C269.139 29.333 287.672 73.8414 287.672 120.25V120.25Z" fill="#0047AD"/>
          <path d="M467.217 -233.166L822.553 -233.166L822.553 120.25C728.312 120.25 637.931 83.0153 571.292 16.7369C504.654 -49.5415 467.217 -139.434 467.217 -233.166V-233.166Z" fill="#0047AD"/>
          <path d="M467.217 -233.166L822.553 -233.166L822.553 120.25C728.312 120.25 637.931 83.0153 571.292 16.7369C504.654 -49.5415 467.217 -139.434 467.217 -233.166V-233.166Z" fill="#0047AD"/>
          <path d="M822.425 827.082C916.666 827.082 1007.05 789.847 1073.69 723.569C1140.32 657.29 1177.76 567.398 1177.76 473.666V473.666C1083.52 473.677 993.149 510.916 926.513 577.191C859.877 643.467 822.437 733.353 822.425 827.082V827.082Z" fill="#0069FF"/>
          <path d="M822.425 120.25C822.425 213.982 859.862 303.874 926.501 370.153C993.139 436.431 1083.52 473.666 1177.76 473.666V473.666C1177.76 379.934 1140.32 290.041 1073.69 223.763C1007.05 157.485 916.666 120.25 822.425 120.25Z" fill="#002965"/>
          <path d="M822.425 -233.166L822.425 120.25L1177.76 120.25L1177.76 -233.166L822.425 -233.166Z" fill="#1F7BFF"/>
          <path d="M822.425 31.8959C822.437 55.3254 831.799 77.7919 848.457 94.3591C865.114 110.926 887.702 120.239 911.259 120.25V120.25C934.819 120.25 957.415 110.941 974.074 94.3715C990.734 77.8019 1000.09 55.3289 1000.09 31.8959C1000.09 8.46298 990.734 -14.0103 974.074 -30.5799C957.415 -47.1495 934.82 -56.4582 911.259 -56.4582V-56.4582C887.702 -56.4469 865.114 -47.1347 848.457 -30.5675C831.799 -14.0003 822.437 8.46643 822.425 31.8959V31.8959Z" fill="#00398B"/>
          <path d="M890.234 31.896C890.234 37.442 892.449 42.7608 896.392 46.6824C900.335 50.6041 905.683 52.8073 911.259 52.8073V52.8073C916.835 52.8073 922.183 50.6041 926.126 46.6824C930.069 42.7608 932.284 37.442 932.284 31.896C932.284 26.35 930.069 21.0309 926.126 17.1093C922.183 13.1876 916.835 10.9847 911.259 10.9847V10.9847C905.683 10.9847 900.335 13.1876 896.392 17.1093C892.449 21.0309 890.234 26.35 890.234 31.896Z" fill="#0047AD"/>
        </g>
      </g>
    </g>
  </g>
  <mask id="mask2_0_1" style="mask-type:alpha" maskUnits="userSpaceOnUse" x="960" y="0" width="960" height="1022">
    <rect width="960" height="1021.87" transform="matrix(-1 0 0 1 1920 0)" fill="#0047AD"/>
  </mask>
  <g mask="url(#mask2_0_1)">
    <g opacity="0.3">
      <mask id="mask3_0_1" style="mask-type:alpha" maskUnits="userSpaceOnUse" x="438" y="0" width="1482" height="849">
        <rect width="1481.89" height="849" transform="matrix(-1 0 0 1 1920 0)" fill="#C4C4C4"/>
      </mask>
      <g mask="url(#mask3_0_1)">
        <g clip-path="url(#clip1_0_1)">
          <path d="M936.737 250.299L936.737 -103.117L1292.07 -103.117L1292.07 250.299L936.737 250.299Z" fill="#002965"/>
          <path d="M936.737 603.715L936.737 250.299L1292.07 250.299L1292.07 603.715L936.737 603.715Z" fill="#1F7BFF"/>
          <path d="M1292.12 250.299L1292.12 -103.117L1647.45 -103.117L1647.45 250.299L1292.12 250.299Z" fill="#0047AD"/>
          <path d="M1292.24 250.299C1292.24 296.71 1301.44 342.667 1319.29 385.546C1337.15 428.424 1363.32 467.384 1396.32 500.202C1429.32 533.02 1468.49 559.052 1511.6 576.813C1554.71 594.574 1600.92 603.715 1647.58 603.715L1647.58 250.299L1292.24 250.299Z" fill="#0069FF"/>
          <path d="M1647.45 250.299L1647.45 -103.116L1292.12 250.299L1647.45 250.299Z" fill="#0047AD" fill-opacity="0.7"/>
          <path d="M936.738 957.131L936.738 603.715L1292.07 603.715L1292.07 957.131L936.738 957.131Z" fill="#1F7BFF"/>
          <path d="M936.738 250.299L936.738 603.715L1292.24 603.715C1292.24 509.983 1254.81 420.091 1188.17 353.812C1121.53 287.534 1031.15 250.299 936.908 250.299L936.738 250.299Z" fill="#0047AD" fill-opacity="0.8"/>
          <path d="M936.738 603.715L936.738 957.131C983.415 957.153 1029.64 948.029 1072.77 930.278C1115.9 912.527 1155.09 886.498 1188.11 853.678C1221.12 820.858 1247.31 781.89 1265.18 739.001C1283.05 696.111 1292.24 650.141 1292.24 603.715V603.715L936.738 603.715Z" fill="#0069FF"/>
          <path d="M1112.7 603.715C1112.7 557.307 1094.17 512.799 1061.18 479.979C1028.19 447.159 983.441 428.715 936.78 428.704L936.78 603.715L1112.7 603.715Z" fill="#002965"/>
          <path d="M1112.7 603.715L936.78 603.715L936.78 778.726C983.441 778.715 1028.19 760.272 1061.18 727.452C1094.17 694.632 1112.7 650.124 1112.7 603.715V603.715Z" fill="#0047AD"/>
          <path d="M1292.24 957.131L1647.58 957.131L1647.58 603.715C1553.34 603.715 1462.96 640.95 1396.32 707.228C1329.68 773.507 1292.24 863.399 1292.24 957.131V957.131Z" fill="#0047AD"/>
          <path d="M1292.24 957.131L1647.58 957.131L1647.58 603.715C1553.34 603.715 1462.96 640.95 1396.32 707.228C1329.68 773.507 1292.24 863.399 1292.24 957.131V957.131Z" fill="#0047AD"/>
          <path d="M1424.45 957.131L1647.62 957.131L1647.62 735.165C1588.43 735.165 1531.67 758.55 1489.82 800.177C1447.96 841.804 1424.45 898.262 1424.45 957.131V957.131Z" fill="#0069FF"/>
          <path d="M1647.45 -103.116C1741.69 -103.116 1832.08 -65.8818 1898.71 0.396531C1965.35 66.6748 2002.79 156.568 2002.79 250.299V250.299C1908.55 250.288 1818.18 213.05 1751.54 146.774C1684.91 80.4979 1647.46 -9.38821 1647.45 -103.116V-103.116Z" fill="#0069FF"/>
          <path d="M1647.45 603.715C1647.45 509.984 1684.89 420.091 1751.53 353.812C1818.17 287.534 1908.55 250.299 2002.79 250.299V250.299C2002.79 344.031 1965.35 433.924 1898.71 500.202C1832.08 566.481 1741.69 603.715 1647.45 603.715Z" fill="#002965"/>
          <path d="M1647.45 957.131L1647.45 603.715L2002.79 603.715L2002.79 957.131L1647.45 957.131Z" fill="#1F7BFF"/>
          <path d="M1647.45 868.777C1647.46 845.348 1656.83 822.881 1673.48 806.314C1690.14 789.747 1712.73 780.435 1736.29 780.423V780.423C1759.85 780.423 1782.44 789.732 1799.1 806.302C1815.76 822.871 1825.12 845.344 1825.12 868.777C1825.13 880.382 1822.83 891.873 1818.37 902.596C1813.91 913.318 1807.36 923.06 1799.11 931.265C1790.86 939.471 1781.07 945.979 1770.29 950.417C1759.51 954.855 1747.95 957.137 1736.29 957.131V957.131C1712.73 957.131 1690.13 947.823 1673.47 931.253C1656.81 914.683 1647.45 892.21 1647.45 868.777Z" fill="#002965"/>
          <path d="M1715.26 868.777C1715.26 863.231 1717.48 857.912 1721.42 853.991C1725.36 850.069 1730.71 847.866 1736.29 847.866C1741.86 847.866 1747.21 850.069 1751.15 853.991C1755.1 857.912 1757.31 863.231 1757.31 868.777V868.777C1757.31 874.323 1755.1 879.642 1751.15 883.564C1747.21 887.486 1741.86 889.689 1736.29 889.689V889.689C1730.71 889.689 1725.36 887.486 1721.42 883.564C1717.48 879.642 1715.26 874.323 1715.26 868.777Z" fill="#1F7BFF"/>
          <path d="M1647.45 692.069C1647.46 668.64 1656.83 646.173 1673.48 629.606C1690.14 613.039 1712.73 603.727 1736.29 603.715V603.715C1759.85 603.715 1782.44 613.024 1799.1 629.594C1815.76 646.163 1825.12 668.636 1825.12 692.069C1825.12 715.502 1815.76 737.976 1799.1 754.545C1782.44 771.115 1759.85 780.423 1736.29 780.423V780.423C1712.73 780.412 1690.14 771.1 1673.48 754.533C1656.83 737.966 1647.46 715.499 1647.45 692.069V692.069Z" fill="#00398B"/>
          <path d="M1715.26 692.069C1715.26 686.523 1717.48 681.204 1721.42 677.283C1725.36 673.361 1730.71 671.158 1736.29 671.158V671.158C1741.86 671.158 1747.21 673.361 1751.15 677.283C1755.1 681.204 1757.31 686.523 1757.31 692.069C1757.31 697.615 1755.1 702.934 1751.15 706.856C1747.21 710.778 1741.86 712.98 1736.29 712.98V712.98C1730.71 712.98 1725.36 710.778 1721.42 706.856C1717.48 702.934 1715.26 697.615 1715.26 692.069Z" fill="#0047AD"/>
          <path d="M1825.12 868.777C1825.13 845.37 1834.48 822.923 1851.11 806.359C1867.74 789.796 1890.29 780.468 1913.83 780.423C1937.39 780.423 1959.98 789.732 1976.64 806.302C1993.3 822.871 2002.66 845.344 2002.66 868.777C2002.67 880.382 2000.37 891.873 1995.91 902.596C1991.45 913.318 1984.91 923.06 1976.65 931.265C1968.4 939.471 1958.61 945.979 1947.83 950.417C1937.05 954.855 1925.49 957.137 1913.83 957.131V957.131C1890.29 957.098 1867.73 947.774 1851.09 931.208C1834.46 914.642 1825.12 892.188 1825.12 868.777Z" fill="#0047AD"/>
          <path d="M1892.93 868.777C1892.98 863.283 1895.19 858.026 1899.1 854.145C1903.01 850.263 1908.3 848.069 1913.83 848.035V848.035C1919.4 848.035 1924.75 850.238 1928.69 854.16C1932.64 858.082 1934.85 863.401 1934.85 868.947V868.947C1934.85 874.493 1932.64 879.812 1928.69 883.733C1924.75 887.655 1919.4 889.858 1913.83 889.858V889.858C1911.06 889.842 1908.33 889.283 1905.78 888.214C1903.23 887.145 1900.92 885.587 1898.98 883.628C1897.04 881.67 1895.51 879.351 1894.47 876.802C1893.43 874.254 1892.91 871.527 1892.93 868.777V868.777Z" fill="#002965"/>
          <path d="M1913.96 780.423C1864.89 780.423 1825.12 740.866 1825.12 692.069C1825.12 643.273 1864.89 603.715 1913.96 603.715C1963.02 603.715 2002.79 643.273 2002.79 692.069C2002.79 740.866 1963.02 780.423 1913.96 780.423Z" fill="#0069FF"/>
          <path d="M1892.93 692.069C1892.93 686.545 1895.13 681.246 1899.04 677.328C1902.96 673.41 1908.27 671.192 1913.83 671.158V671.158C1919.4 671.158 1924.75 673.361 1928.69 677.283C1932.64 681.204 1934.85 686.523 1934.85 692.069V692.069C1934.85 697.615 1932.64 702.934 1928.69 706.856C1924.75 710.778 1919.4 712.98 1913.83 712.98V712.98C1908.27 712.947 1902.96 710.729 1899.04 706.811C1895.13 702.893 1892.93 697.593 1892.93 692.069Z" fill="#00398B"/>
        </g>
      </g>
    </g>
  </g>
  <defs>
    <clipPath id="clip0_0_1">
      <rect width="1897.13" height="2132.06" fill="white" transform="translate(-598.963 1310.55) rotate(-90)"/>
    </clipPath>
    <clipPath id="clip1_0_1">
      <rect width="1897.13" height="2132.06" fill="white" transform="matrix(1.19873e-08 1 1 -1.18628e-08 226.065 -586.582)"/>
    </clipPath>
  </defs>
</svg>
