<svg width="86" height="85" viewBox="0 0 86 85" fill="none" xmlns="http://www.w3.org/2000/svg">
  <circle cx="42.9082" cy="42.5" r="42.5" fill="#473BF0"/>
  <path d="M62.7701 54.6585L51.3872 42.9128L62.7701 31.1928L67.4036 35.6747C69.3909 37.6041 70.5057 40.21 70.5057 42.9257C70.5057 45.6414 69.3909 48.2472 67.4036 50.1766L62.7701 54.6585Z" stroke="white" stroke-width="4.05" stroke-linecap="round" stroke-linejoin="round"/>
  <path d="M24.0412 54.6585L19.4077 50.1766C17.4205 48.2472 16.3057 45.6414 16.3057 42.9257C16.3057 40.21 17.4205 37.6041 19.4077 35.6747L24.0412 31.1928L35.4242 42.9128L24.0412 54.6585Z" stroke="white" stroke-width="4.05" stroke-linecap="round" stroke-linejoin="round"/>
  <path d="M43.4054 35.2369L31.2188 24.3155L35.8523 19.9367C37.8596 18.0177 40.5751 16.9406 43.4054 16.9406C46.2357 16.9406 48.9506 18.0177 50.9579 19.9367L55.592 24.4185L43.4054 35.2369Z" stroke="white" stroke-width="4.05" stroke-linecap="round" stroke-linejoin="round"/>
  <path d="M35.8523 66.0176L31.2188 61.5357L43.4054 50.5886L55.592 61.5357L50.9579 66.0176C48.9506 67.9366 46.2357 69.0137 43.4054 69.0137C40.5751 69.0137 37.8596 67.9366 35.8523 66.0176V66.0176Z" stroke="white" stroke-width="4.05" stroke-linecap="round" stroke-linejoin="round"/>
  <path d="M65.6356 11.9517L67.7242 11.0243C67.7841 11.0063 67.8367 10.9705 67.8739 10.9218C67.9111 10.8732 67.9314 10.8143 67.9314 10.7539C67.9314 10.6935 67.9111 10.6347 67.8739 10.586C67.8367 10.5374 67.7841 10.5015 67.7242 10.4835L66.1443 10.0199C65.5362 9.83373 64.9888 9.49816 64.5567 9.04644C64.1246 8.59472 63.8221 8.04248 63.6798 7.44412L62.9305 4.14705C62.9305 4.07191 62.8994 3.9999 62.8441 3.94676C62.7889 3.89363 62.7137 3.86376 62.6356 3.86376C62.5574 3.86376 62.4822 3.89363 62.427 3.94676C62.3717 3.9999 62.3407 4.07191 62.3407 4.14705L61.5645 7.41834C61.4348 8.01802 61.1398 8.57329 60.7111 9.02631C60.2825 9.47933 59.7354 9.81353 59.1268 9.99411L57.5202 10.4835C57.4602 10.5015 57.4076 10.5374 57.3704 10.586C57.3332 10.6347 57.3129 10.6935 57.3129 10.7539C57.3129 10.8143 57.3332 10.8732 57.3704 10.9218C57.4076 10.9705 57.4602 11.0063 57.5202 11.0243L59.6093 11.9774C60.0958 12.1942 60.5259 12.5125 60.8687 12.909C61.2115 13.3055 61.4583 13.7703 61.5913 14.2698L62.3943 17.3608C62.3943 17.4359 62.4253 17.508 62.4806 17.5611C62.5358 17.6142 62.611 17.6441 62.6892 17.6441C62.7673 17.6441 62.8425 17.6142 62.8978 17.5611C62.953 17.508 62.9834 17.4359 62.9834 17.3608L63.7871 14.2441C63.907 13.7572 64.1339 13.3007 64.4527 12.9052C64.7715 12.5098 65.1752 12.1847 65.6356 11.9517V11.9517Z" fill="white"/>
  <path d="M17.6124 66.7387L18.8444 66.1721C18.887 66.1721 18.928 66.1558 18.9581 66.1269C18.9883 66.0979 19.0052 66.0586 19.0052 66.0176C19.0052 65.9766 18.9883 65.9373 18.9581 65.9083C18.928 65.8794 18.887 65.8631 18.8444 65.8631L17.9073 65.5796C17.542 65.4647 17.213 65.2628 16.9507 64.9926C16.6884 64.7224 16.5013 64.3926 16.4073 64.0342L15.9522 62.0766C15.9383 62.0432 15.9139 62.0145 15.8829 61.9943C15.8519 61.974 15.8151 61.9633 15.7776 61.9633C15.7401 61.9633 15.704 61.974 15.673 61.9943C15.642 62.0145 15.6176 62.0432 15.6037 62.0766L15.1486 64.0342C15.0676 64.3914 14.8879 64.7211 14.6287 64.9885C14.3695 65.2559 14.0402 65.4513 13.6754 65.554L12.7115 65.8631C12.6689 65.8631 12.6279 65.8794 12.5977 65.9083C12.5676 65.9373 12.5507 65.9766 12.5507 66.0176C12.5507 66.0586 12.5676 66.0979 12.5977 66.1269C12.6279 66.1558 12.6689 66.1721 12.7115 66.1721L13.9703 66.7387C14.2608 66.8732 14.5166 67.0674 14.7203 67.3078C14.9239 67.5482 15.0703 67.8289 15.1486 68.1297L15.6305 69.9842C15.6444 70.0177 15.6688 70.0464 15.6998 70.0666C15.7308 70.0868 15.7669 70.0975 15.8044 70.0975C15.8419 70.0975 15.8787 70.0868 15.9097 70.0666C15.9407 70.0464 15.9651 70.0177 15.979 69.9842L16.4609 68.1297C16.5345 67.8306 16.6757 67.5508 16.8748 67.3103C17.0739 67.0699 17.3258 66.8747 17.6124 66.7387V66.7387Z" fill="white"/>
</svg>
