<svg width="71" height="71" viewBox="0 0 71 71" fill="none" xmlns="http://www.w3.org/2000/svg">
<path d="M48.1885 27.2744L49.8009 27.8658C49.8444 27.8883 49.8947 27.8952 49.9427 27.8855C49.9906 27.8758 50.0334 27.8499 50.0647 27.8123C50.0961 27.7747 50.1137 27.7276 50.1146 27.6786C50.1155 27.6297 50.0999 27.582 50.07 27.5433L49.4787 26.4411C49.2428 26.0325 49.1184 25.5689 49.1184 25.0971C49.1184 24.6252 49.2428 24.1617 49.4787 23.7531L50.8765 21.5489C51.0109 21.3338 50.8762 21.0919 50.5806 21.2263L48.3761 22.6242C47.9675 22.8601 47.504 22.9843 47.0321 22.9843C46.5603 22.9843 46.0967 22.8601 45.6881 22.6242L44.5593 22.0327C44.5168 22.0154 44.4706 22.0105 44.4254 22.0186C44.3803 22.0267 44.3385 22.0473 44.3047 22.0783C44.2708 22.1093 44.2464 22.1494 44.2344 22.1937C44.2225 22.2379 44.2235 22.2847 44.2371 22.3285L44.8284 23.9413C44.9676 24.3182 45.0205 24.7215 44.9832 25.1215C44.946 25.5216 44.8194 25.9082 44.6131 26.2529L43.3229 28.3766C43.2837 28.4193 43.2633 28.4759 43.2658 28.5339C43.2683 28.5919 43.2932 28.6465 43.336 28.6857C43.3788 28.7249 43.4355 28.7454 43.4935 28.7429C43.5515 28.7404 43.6059 28.715 43.6451 28.6722L45.7688 27.4088C46.1334 27.1985 46.5423 27.0769 46.9625 27.0536C47.3827 27.0302 47.8028 27.1058 48.1885 27.2744Z" fill="white" fill-opacity="0.4"/>
<path d="M47.6772 32.57L50.7416 35.6344L35.3659 51.0101L19.9902 35.6344L35.3659 20.2318L39.2636 24.1295" stroke="white" stroke-width="4.05" stroke-linecap="round" stroke-linejoin="round"/>
<path d="M18.2697 59.9073C15.475 57.9239 13.039 55.4787 11.0659 52.6768L18.2697 59.9073Z" fill="white"/>
<path d="M18.2697 59.9073C15.475 57.9239 13.039 55.4787 11.0659 52.6768" stroke="white" stroke-width="4.05" stroke-linecap="round" stroke-linejoin="round"/>
<path d="M48.8331 62.1387C46.0171 63.5803 42.9842 64.5518 39.8548 65.015L48.8331 62.1387Z" fill="white"/>
<path d="M48.8331 62.1387C46.0171 63.5803 42.9842 64.5518 39.8548 65.015" stroke="white" stroke-width="4.05" stroke-linecap="round" stroke-linejoin="round"/>
<path d="M64.7732 39.3978C64.3596 42.7506 63.3681 46.0065 61.8429 49.0209L64.7732 39.3978Z" fill="white"/>
<path d="M64.7732 39.3978C64.3596 42.7506 63.3681 46.0065 61.8429 49.0209" stroke="white" stroke-width="4.05" stroke-linecap="round" stroke-linejoin="round"/>
<path d="M62.0852 22.7853L62.5681 23.8857L62.0852 22.7853Z" fill="white"/>
<path d="M62.0852 22.7853L62.5681 23.8857" stroke="white" stroke-width="4.05" stroke-linecap="round" stroke-linejoin="round"/>
<path d="M53.0263 11.7109C55.3445 13.4287 57.4001 15.4752 59.1283 17.7857L53.0263 11.7109Z" fill="white"/>
<path d="M53.0263 11.7109C55.3445 13.4287 57.4001 15.4752 59.1283 17.7857" stroke="white" stroke-width="4.05" stroke-linecap="round" stroke-linejoin="round"/>
<path d="M21.9256 9.13033C24.8315 7.64236 27.966 6.65201 31.1993 6.20026L21.9256 9.13033Z" fill="white"/>
<path d="M21.9256 9.13033C24.8315 7.64236 27.966 6.65201 31.1993 6.20026" stroke="white" stroke-width="4.05" stroke-linecap="round" stroke-linejoin="round"/>
<path d="M5.93208 31.468C6.39639 28.2377 7.3857 25.105 8.86162 22.1942L5.93208 31.468Z" fill="white"/>
<path d="M5.93208 31.468C6.39639 28.2377 7.3857 25.105 8.86162 22.1942" stroke="white" stroke-width="4.05" stroke-linecap="round" stroke-linejoin="round"/>
<path d="M35.2315 49.5853V21.4147" stroke="white" stroke-width="4.05" stroke-linecap="round" stroke-linejoin="round"/>
<path d="M50.6071 35.6344H35.5002" stroke="white" stroke-width="4.05" stroke-linecap="round" stroke-linejoin="round"/>
<path d="M35.5003 9.6946C37.5193 9.6946 39.156 8.05787 39.156 6.03886C39.156 4.01985 37.5193 2.38312 35.5003 2.38312C33.4813 2.38312 31.8446 4.01985 31.8446 6.03886C31.8446 8.05787 33.4813 9.6946 35.5003 9.6946Z" stroke="white" stroke-width="4.05" stroke-linecap="round" stroke-linejoin="round"/>
<path d="M35.5003 68.6169C37.5193 68.6169 39.156 66.9801 39.156 64.9611C39.156 62.9421 37.5193 61.3054 35.5003 61.3054C33.4813 61.3054 31.8446 62.9421 31.8446 64.9611C31.8446 66.9801 33.4813 68.6169 35.5003 68.6169Z" stroke="white" stroke-width="4.05" stroke-linecap="round" stroke-linejoin="round"/>
<path d="M64.9614 39.1558C66.9804 39.1558 68.6172 37.519 68.6172 35.4999C68.6172 33.4809 66.9804 31.8441 64.9614 31.8441C62.9424 31.8441 61.3057 33.4809 61.3057 35.4999C61.3057 37.519 62.9424 39.1558 64.9614 39.1558Z" stroke="white" stroke-width="4.05" stroke-linecap="round" stroke-linejoin="round"/>
<path d="M6.03892 39.1558C8.05793 39.1558 9.69466 37.519 9.69466 35.4999C9.69466 33.4809 8.05793 31.8441 6.03892 31.8441C4.01991 31.8441 2.38318 33.4809 2.38318 35.4999C2.38318 37.519 4.01991 39.1558 6.03892 39.1558Z" stroke="white" stroke-width="4.05" stroke-linecap="round" stroke-linejoin="round"/>
</svg>
