<svg width="143" height="137" viewBox="0 0 143 137" fill="none" xmlns="http://www.w3.org/2000/svg">
  <path fill-rule="evenodd" clip-rule="evenodd" d="M30 27C31.6569 27 33 25.6569 33 24C33 22.3431 31.6569 21 30 21C28.3431 21 27 22.3431 27 24C27 25.6569 28.3431 27 30 27ZM30 71C31.6569 71 33 69.6569 33 68C33 66.3431 31.6569 65 30 65C28.3431 65 27 66.3431 27 68C27 69.6569 28.3431 71 30 71ZM33 112C33 113.657 31.6569 115 30 115C28.3431 115 27 113.657 27 112C27 110.343 28.3431 109 30 109C31.6569 109 33 110.343 33 112ZM30 49C31.6569 49 33 47.6569 33 46C33 44.3431 31.6569 43 30 43C28.3431 43 27 44.3431 27 46C27 47.6569 28.3431 49 30 49ZM33 90C33 91.6569 31.6569 93 30 93C28.3431 93 27 91.6569 27 90C27 88.3431 28.3431 87 30 87C31.6569 87 33 88.3431 33 90ZM30 137C31.6569 137 33 135.657 33 134C33 132.343 31.6569 131 30 131C28.3431 131 27 132.343 27 134C27 135.657 28.3431 137 30 137ZM121 24C121 25.6569 119.657 27 118 27C116.343 27 115 25.6569 115 24C115 22.3431 116.343 21 118 21C119.657 21 121 22.3431 121 24ZM118 71C119.657 71 121 69.6569 121 68C121 66.3431 119.657 65 118 65C116.343 65 115 66.3431 115 68C115 69.6569 116.343 71 118 71ZM121 112C121 113.657 119.657 115 118 115C116.343 115 115 113.657 115 112C115 110.343 116.343 109 118 109C119.657 109 121 110.343 121 112ZM118 49C119.657 49 121 47.6569 121 46C121 44.3431 119.657 43 118 43C116.343 43 115 44.3431 115 46C115 47.6569 116.343 49 118 49ZM121 90C121 91.6569 119.657 93 118 93C116.343 93 115 91.6569 115 90C115 88.3431 116.343 87 118 87C119.657 87 121 88.3431 121 90ZM118 137C119.657 137 121 135.657 121 134C121 132.343 119.657 131 118 131C116.343 131 115 132.343 115 134C115 135.657 116.343 137 118 137ZM77 24C77 25.6569 75.6569 27 74 27C72.3431 27 71 25.6569 71 24C71 22.3431 72.3431 21 74 21C75.6569 21 77 22.3431 77 24ZM74 71C75.6569 71 77 69.6569 77 68C77 66.3431 75.6569 65 74 65C72.3431 65 71 66.3431 71 68C71 69.6569 72.3431 71 74 71ZM77 112C77 113.657 75.6569 115 74 115C72.3431 115 71 113.657 71 112C71 110.343 72.3431 109 74 109C75.6569 109 77 110.343 77 112ZM74 49C75.6569 49 77 47.6569 77 46C77 44.3431 75.6569 43 74 43C72.3431 43 71 44.3431 71 46C71 47.6569 72.3431 49 74 49ZM77 90C77 91.6569 75.6569 93 74 93C72.3431 93 71 91.6569 71 90C71 88.3431 72.3431 87 74 87C75.6569 87 77 88.3431 77 90ZM74 137C75.6569 137 77 135.657 77 134C77 132.343 75.6569 131 74 131C72.3431 131 71 132.343 71 134C71 135.657 72.3431 137 74 137ZM55 24C55 25.6569 53.6569 27 52 27C50.3431 27 49 25.6569 49 24C49 22.3431 50.3431 21 52 21C53.6569 21 55 22.3431 55 24ZM52 71C53.6569 71 55 69.6569 55 68C55 66.3431 53.6569 65 52 65C50.3431 65 49 66.3431 49 68C49 69.6569 50.3431 71 52 71ZM55 112C55 113.657 53.6569 115 52 115C50.3431 115 49 113.657 49 112C49 110.343 50.3431 109 52 109C53.6569 109 55 110.343 55 112ZM52 49C53.6569 49 55 47.6569 55 46C55 44.3431 53.6569 43 52 43C50.3431 43 49 44.3431 49 46C49 47.6569 50.3431 49 52 49ZM55 90C55 91.6569 53.6569 93 52 93C50.3431 93 49 91.6569 49 90C49 88.3431 50.3431 87 52 87C53.6569 87 55 88.3431 55 90ZM52 137C53.6569 137 55 135.657 55 134C55 132.343 53.6569 131 52 131C50.3431 131 49 132.343 49 134C49 135.657 50.3431 137 52 137ZM143 24C143 25.6569 141.657 27 140 27C138.343 27 137 25.6569 137 24C137 22.3431 138.343 21 140 21C141.657 21 143 22.3431 143 24ZM140 71C141.657 71 143 69.6569 143 68C143 66.3431 141.657 65 140 65C138.343 65 137 66.3431 137 68C137 69.6569 138.343 71 140 71ZM143 112C143 113.657 141.657 115 140 115C138.343 115 137 113.657 137 112C137 110.343 138.343 109 140 109C141.657 109 143 110.343 143 112ZM140 49C141.657 49 143 47.6569 143 46C143 44.3431 141.657 43 140 43C138.343 43 137 44.3431 137 46C137 47.6569 138.343 49 140 49ZM143 90C143 91.6569 141.657 93 140 93C138.343 93 137 91.6569 137 90C137 88.3431 138.343 87 140 87C141.657 87 143 88.3431 143 90ZM140 137C141.657 137 143 135.657 143 134C143 132.343 141.657 131 140 131C138.343 131 137 132.343 137 134C137 135.657 138.343 137 140 137ZM99 24C99 25.6569 97.6569 27 96 27C94.3431 27 93 25.6569 93 24C93 22.3431 94.3431 21 96 21C97.6569 21 99 22.3431 99 24ZM96 71C97.6569 71 99 69.6569 99 68C99 66.3431 97.6569 65 96 65C94.3431 65 93 66.3431 93 68C93 69.6569 94.3431 71 96 71ZM99 112C99 113.657 97.6569 115 96 115C94.3431 115 93 113.657 93 112C93 110.343 94.3431 109 96 109C97.6569 109 99 110.343 99 112ZM96 49C97.6569 49 99 47.6569 99 46C99 44.3431 97.6569 43 96 43C94.3431 43 93 44.3431 93 46C93 47.6569 94.3431 49 96 49ZM99 90C99 91.6569 97.6569 93 96 93C94.3431 93 93 91.6569 93 90C93 88.3431 94.3431 87 96 87C97.6569 87 99 88.3431 99 90ZM96 137C97.6569 137 99 135.657 99 134C99 132.343 97.6569 131 96 131C94.3431 131 93 132.343 93 134C93 135.657 94.3431 137 96 137Z" fill="#076AD0"/>
  <path fill-rule="evenodd" clip-rule="evenodd" d="M3 6C4.65685 6 6 4.65685 6 3C6 1.34315 4.65685 0 3 0C1.34315 0 0 1.34315 0 3C0 4.65685 1.34315 6 3 6ZM3 50C4.65685 50 6 48.6569 6 47C6 45.3431 4.65685 44 3 44C1.34315 44 0 45.3431 0 47C0 48.6569 1.34315 50 3 50ZM6 91C6 92.6569 4.65685 94 3 94C1.34315 94 0 92.6569 0 91C0 89.3431 1.34315 88 3 88C4.65685 88 6 89.3431 6 91ZM3 28C4.65685 28 6 26.6569 6 25C6 23.3431 4.65685 22 3 22C1.34315 22 0 23.3431 0 25C0 26.6569 1.34315 28 3 28ZM6 69C6 70.6569 4.65685 72 3 72C1.34315 72 0 70.6569 0 69C0 67.3431 1.34315 66 3 66C4.65685 66 6 67.3431 6 69ZM3 116C4.65685 116 6 114.657 6 113C6 111.343 4.65685 110 3 110C1.34315 110 0 111.343 0 113C0 114.657 1.34315 116 3 116ZM94 3C94 4.65685 92.6569 6 91 6C89.3431 6 88 4.65685 88 3C88 1.34315 89.3431 0 91 0C92.6569 0 94 1.34315 94 3ZM91 50C92.6569 50 94 48.6569 94 47C94 45.3431 92.6569 44 91 44C89.3431 44 88 45.3431 88 47C88 48.6569 89.3431 50 91 50ZM94 91C94 92.6569 92.6569 94 91 94C89.3431 94 88 92.6569 88 91C88 89.3431 89.3431 88 91 88C92.6569 88 94 89.3431 94 91ZM91 28C92.6569 28 94 26.6569 94 25C94 23.3431 92.6569 22 91 22C89.3431 22 88 23.3431 88 25C88 26.6569 89.3431 28 91 28ZM94 69C94 70.6569 92.6569 72 91 72C89.3431 72 88 70.6569 88 69C88 67.3431 89.3431 66 91 66C92.6569 66 94 67.3431 94 69ZM91 116C92.6569 116 94 114.657 94 113C94 111.343 92.6569 110 91 110C89.3431 110 88 111.343 88 113C88 114.657 89.3431 116 91 116ZM50 3C50 4.65685 48.6569 6 47 6C45.3431 6 44 4.65685 44 3C44 1.34315 45.3431 0 47 0C48.6569 0 50 1.34315 50 3ZM47 50C48.6569 50 50 48.6569 50 47C50 45.3431 48.6569 44 47 44C45.3431 44 44 45.3431 44 47C44 48.6569 45.3431 50 47 50ZM50 91C50 92.6569 48.6569 94 47 94C45.3431 94 44 92.6569 44 91C44 89.3431 45.3431 88 47 88C48.6569 88 50 89.3431 50 91ZM47 28C48.6569 28 50 26.6569 50 25C50 23.3431 48.6569 22 47 22C45.3431 22 44 23.3431 44 25C44 26.6569 45.3431 28 47 28ZM50 69C50 70.6569 48.6569 72 47 72C45.3431 72 44 70.6569 44 69C44 67.3431 45.3431 66 47 66C48.6569 66 50 67.3431 50 69ZM47 116C48.6569 116 50 114.657 50 113C50 111.343 48.6569 110 47 110C45.3431 110 44 111.343 44 113C44 114.657 45.3431 116 47 116ZM28 3C28 4.65685 26.6569 6 25 6C23.3431 6 22 4.65685 22 3C22 1.34315 23.3431 0 25 0C26.6569 0 28 1.34315 28 3ZM25 50C26.6569 50 28 48.6569 28 47C28 45.3431 26.6569 44 25 44C23.3431 44 22 45.3431 22 47C22 48.6569 23.3431 50 25 50ZM28 91C28 92.6569 26.6569 94 25 94C23.3431 94 22 92.6569 22 91C22 89.3431 23.3431 88 25 88C26.6569 88 28 89.3431 28 91ZM25 28C26.6569 28 28 26.6569 28 25C28 23.3431 26.6569 22 25 22C23.3431 22 22 23.3431 22 25C22 26.6569 23.3431 28 25 28ZM28 69C28 70.6569 26.6569 72 25 72C23.3431 72 22 70.6569 22 69C22 67.3431 23.3431 66 25 66C26.6569 66 28 67.3431 28 69ZM25 116C26.6569 116 28 114.657 28 113C28 111.343 26.6569 110 25 110C23.3431 110 22 111.343 22 113C22 114.657 23.3431 116 25 116ZM116 3C116 4.65685 114.657 6 113 6C111.343 6 110 4.65685 110 3C110 1.34315 111.343 0 113 0C114.657 0 116 1.34315 116 3ZM113 50C114.657 50 116 48.6569 116 47C116 45.3431 114.657 44 113 44C111.343 44 110 45.3431 110 47C110 48.6569 111.343 50 113 50ZM116 91C116 92.6569 114.657 94 113 94C111.343 94 110 92.6569 110 91C110 89.3431 111.343 88 113 88C114.657 88 116 89.3431 116 91ZM113 28C114.657 28 116 26.6569 116 25C116 23.3431 114.657 22 113 22C111.343 22 110 23.3431 110 25C110 26.6569 111.343 28 113 28ZM116 69C116 70.6569 114.657 72 113 72C111.343 72 110 70.6569 110 69C110 67.3431 111.343 66 113 66C114.657 66 116 67.3431 116 69ZM113 116C114.657 116 116 114.657 116 113C116 111.343 114.657 110 113 110C111.343 110 110 111.343 110 113C110 114.657 111.343 116 113 116ZM72 3C72 4.65685 70.6569 6 69 6C67.3431 6 66 4.65685 66 3C66 1.34315 67.3431 0 69 0C70.6569 0 72 1.34315 72 3ZM69 50C70.6569 50 72 48.6569 72 47C72 45.3431 70.6569 44 69 44C67.3431 44 66 45.3431 66 47C66 48.6569 67.3431 50 69 50ZM72 91C72 92.6569 70.6569 94 69 94C67.3431 94 66 92.6569 66 91C66 89.3431 67.3431 88 69 88C70.6569 88 72 89.3431 72 91ZM69 28C70.6569 28 72 26.6569 72 25C72 23.3431 70.6569 22 69 22C67.3431 22 66 23.3431 66 25C66 26.6569 67.3431 28 69 28ZM72 69C72 70.6569 70.6569 72 69 72C67.3431 72 66 70.6569 66 69C66 67.3431 67.3431 66 69 66C70.6569 66 72 67.3431 72 69ZM69 116C70.6569 116 72 114.657 72 113C72 111.343 70.6569 110 69 110C67.3431 110 66 111.343 66 113C66 114.657 67.3431 116 69 116Z" fill="#BECDDA"/>
</svg>
