<svg width="352" height="71" viewBox="0 0 352 71" fill="none" xmlns="http://www.w3.org/2000/svg">
<path d="M248.742 17.2013C243.978 14.2659 238.221 12.9998 232.523 13.6346C226.824 14.2694 221.566 16.7626 217.708 20.6585C213.851 24.5543 211.652 29.5926 211.514 34.852C211.376 40.1114 213.308 45.2407 216.956 49.302C220.605 53.3634 225.727 56.0855 231.385 56.9706C237.043 57.8558 242.86 56.8449 247.773 54.1228C252.685 51.4006 256.364 47.1491 258.137 42.1455C259.91 37.1419 259.659 31.7205 257.43 26.8724C255.62 22.9439 252.601 19.5834 248.742 17.2013ZM249.528 40.9133C248.36 43.4357 246.417 45.5932 243.937 47.1241C241.814 48.4338 239.367 49.2383 236.82 49.4648C234.272 49.6913 231.702 49.3328 229.344 48.4217C226.596 47.3487 224.244 45.5738 222.567 43.3089C220.725 40.7858 219.819 37.7861 219.982 34.754C220.146 31.7218 221.37 28.8186 223.475 26.4742C225.579 24.1299 228.451 22.4691 231.666 21.7378C234.881 21.0065 238.267 21.2436 241.324 22.414C244.075 23.4914 246.431 25.2698 248.112 27.5379C249.541 29.4844 250.419 31.7263 250.666 34.0614C250.913 36.3966 250.522 38.7514 249.528 40.9133Z" fill="white"/>
<path d="M314.293 14.1517V21.8263H327.786V56.5835H338.241V21.8263H352V14.1517H314.293Z" fill="white"/>
<path d="M203.775 24.2772C203.357 23.2161 202.804 22.2037 202.129 21.2606C200.183 18.5808 197.343 16.5499 194.033 15.4713C191.367 14.5967 188.552 14.1649 185.72 14.1959H167.206V56.6284H177.661V46.9242H186.41H187.62C191.357 46.7794 194.979 45.6935 198.087 43.7855C200.742 42.0682 202.757 39.6446 203.86 36.8428C204.636 34.8539 205.025 32.7555 205.009 30.6432V30.5656C205.009 28.4188 204.591 26.2894 203.775 24.2772ZM195.304 31.109V31.3752C195.252 32.2055 195.098 33.0277 194.844 33.8262C194.603 34.6148 194.227 35.3634 193.731 36.0443C192.947 37.0676 191.871 37.8734 190.621 38.3733C189.145 38.9338 187.559 39.2058 185.962 39.1719H177.612V21.8928H185.962C187.559 21.8588 189.145 22.1308 190.621 22.6913C191.874 23.1918 192.951 24.002 193.731 25.0314C194.229 25.7114 194.605 26.4603 194.844 27.2495C195.099 28.0515 195.253 28.8776 195.304 29.7116V29.8891C195.304 30.0887 195.304 30.2883 195.304 30.488C195.304 30.6876 195.316 30.9094 195.304 31.109Z" fill="white"/>
<path d="M306.985 30.7759C307.055 28.6006 306.647 26.4347 305.784 24.4073C304.921 22.3798 303.622 20.5324 301.963 18.9753C298.683 16.0141 293.843 14.2063 287.587 14.2063H269.29V56.6395H279.951V23.2342H288.724C289.894 23.1598 291.066 23.3197 292.161 23.7027C293.256 24.0858 294.247 24.6828 295.065 25.4523C296.393 26.9883 297.057 28.9193 296.929 30.8757C297.017 31.9596 296.846 33.048 296.428 34.0651C296.01 35.0822 295.355 36.0036 294.509 36.7649L294.23 36.9867C292.947 38.0546 291.923 39.3578 291.225 40.8118C290.526 42.2658 290.169 43.8381 290.176 45.4268C290.181 47.5635 290.826 49.6581 292.04 51.4823L295.525 56.7393H306.416L300.208 47.6671C299.863 47.1576 299.678 46.5701 299.676 45.9702C299.681 45.4898 299.799 45.016 300.022 44.5814C300.246 44.1468 300.569 43.7617 300.971 43.4526C302.95 41.8911 304.519 39.94 305.56 37.7449C306.602 35.5499 307.089 33.1676 306.985 30.7759Z" fill="white"/>
<path d="M86.854 14.0966L60.4496 56.0179L60.0986 56.5059H60.1349L60.0986 56.5835H71.5462L71.5946 56.5059H71.6914L92.8803 22.7248V56.5059H102.888V14.0966H86.854Z" fill="white"/>
<path d="M146.694 14.1734V47.9549L128.264 18.543C127.431 17.2049 126.229 16.0908 124.779 15.3123C123.328 14.5337 121.68 14.118 119.999 14.1068H113.949V56.5056H123.968V29.9994L137.049 50.7608C138.163 52.5283 139.765 53.996 141.694 55.0161C143.622 56.0363 145.81 56.573 148.037 56.5722H156.75V14.1734H146.694Z" fill="white"/>
<g opacity="0.8">
<path opacity="0.8" d="M60.8242 35.3797L57.4844 37.1437V40.6828" fill="white"/>
<path opacity="0.8" d="M57.4835 40.6828V37.1437L54.1436 35.3797L57.4835 40.6828Z" fill="white"/>
<path opacity="0.8" d="M54.1436 35.3797L57.4834 37.1442L60.8233 35.3797H54.1436Z" fill="white"/>
<path opacity="0.8" d="M44.1128 37.1437V40.6828L47.4527 38.9188V35.3797L44.1128 37.1437Z" fill="white"/>
<path opacity="0.8" d="M47.4526 35.3797V38.9188L50.8046 40.6828V37.1437L47.4526 35.3797Z" fill="white"/>
<path opacity="0.8" d="M47.4526 35.3797L50.8046 37.1442L54.1445 35.3797H47.4526Z" fill="white"/>
<path opacity="0.8" d="M54.1436 35.3797L50.8037 37.1437V40.6828L54.1436 35.3797Z" fill="white"/>
<path opacity="0.8" d="M50.8046 40.6805L47.4526 42.4451V45.9854L50.8046 40.6805Z" fill="white"/>
<path opacity="0.8" d="M47.4527 45.9854V42.4451L44.1128 40.6805L47.4527 45.9854Z" fill="white"/>
<path opacity="0.8" d="M40.7725 35.3797L44.1124 37.1442L47.4523 35.3797H40.7725Z" fill="white"/>
<path opacity="0.8" d="M54.1436 42.4456L57.4835 40.6814L54.1436 38.9172L50.8037 40.6814L54.1436 42.4456Z" fill="white"/>
<path opacity="0.8" d="M57.4835 40.6805L54.1436 42.4451V45.9854" fill="white"/>
<path opacity="0.8" d="M54.1436 45.9854V42.4451L50.8037 40.6805V44.2208L54.1436 45.9854Z" fill="white"/>
<path opacity="0.8" d="M54.1445 45.9853L50.8046 44.2186L47.4526 45.9853H54.1445Z" fill="white"/>
<path opacity="0.8" d="M47.4526 45.9854L50.8046 44.2208V40.6805L47.4526 45.9854Z" fill="white"/>
<path opacity="0.8" d="M50.8037 40.6828L54.1436 38.9188V35.3797L50.8037 40.6828Z" fill="white"/>
<path opacity="0.8" d="M54.1436 35.3797V38.9188L57.4835 40.6828L54.1436 35.3797Z" fill="white"/>
<path opacity="0.8" d="M44.1128 40.6805V44.2208L47.4527 45.9854" fill="white"/>
<path opacity="0.8" d="M47.4523 45.9853L44.1124 44.2186L40.7725 45.9853H47.4523Z" fill="white"/>
<path opacity="0.8" d="M47.4527 49.52L44.1128 51.2957L47.4527 53.0604L50.8047 51.2957L47.4527 49.52Z" fill="white"/>
<path opacity="0.8" d="M44.1128 47.7585V51.2982L47.4527 49.5228V45.9831L44.1128 47.7585Z" fill="white"/>
<path opacity="0.8" d="M47.4526 45.9831V49.5228L50.8046 51.2982V47.7585L47.4526 45.9831Z" fill="white"/>
<path opacity="0.8" d="M47.4526 45.9831L50.8046 47.759L54.1445 45.9831H47.4526Z" fill="white"/>
<path opacity="0.8" d="M54.1436 45.9831L50.8037 47.7585V51.2982L54.1436 45.9831Z" fill="white"/>
<path opacity="0.8" d="M50.8046 51.2958L47.4526 53.0598V56.599L50.8046 51.2958Z" fill="white"/>
<path opacity="0.8" d="M44.1124 51.2982V47.7585L40.7725 45.9831L44.1124 51.2982Z" fill="white"/>
<path opacity="0.8" d="M47.4527 56.599V53.0598L44.1128 51.2958L47.4527 56.599Z" fill="white"/>
<path opacity="0.8" d="M40.7725 45.9831L44.1124 47.759L47.4523 45.9831H40.7725Z" fill="white"/>
<path opacity="0.8" d="M44.1124 54.8349V51.2958L40.7725 53.0598V56.599L44.1124 54.8349Z" fill="white"/>
<path opacity="0.8" d="M40.7725 56.599V53.0598L37.4326 51.2958V54.8349L40.7725 56.599Z" fill="white"/>
<path opacity="0.8" d="M40.7734 56.599L37.4335 54.8334L34.0815 56.599H40.7734Z" fill="white"/>
<path opacity="0.8" d="M44.1128 51.2958V54.8349L47.4527 56.599L44.1128 51.2958Z" fill="white"/>
<path opacity="0.8" d="M40.7725 45.9831V49.5228L44.1124 51.2982L40.7725 45.9831Z" fill="white"/>
<path opacity="0.8" d="M47.4523 56.599L44.1124 54.8334L40.7725 56.599H47.4523Z" fill="white"/>
<path opacity="0.8" d="M74.1959 14.1517L70.856 15.9156V19.4543" fill="white"/>
<path opacity="0.8" d="M70.8565 19.4543V15.9156L67.5166 14.1517L70.8565 19.4543Z" fill="white"/>
<path opacity="0.8" d="M67.5166 14.1517L70.8565 15.9174L74.1963 14.1517H67.5166Z" fill="white"/>
<path opacity="0.8" d="M60.8242 17.6888L57.4844 19.4534L60.8242 21.2291L64.1762 19.4534L60.8242 17.6888Z" fill="white"/>
<path opacity="0.8" d="M57.4844 19.4543L60.8242 17.6905V14.1517L57.4844 19.4543Z" fill="white"/>
<path opacity="0.8" d="M60.8242 14.1517V17.6905L64.1762 19.4543V15.9156L60.8242 14.1517Z" fill="white"/>
<path opacity="0.8" d="M60.8242 14.1517L64.1762 15.9174L67.5161 14.1517H60.8242Z" fill="white"/>
<path opacity="0.8" d="M67.5166 14.1517L64.1768 15.9156V19.4543L67.5166 14.1517Z" fill="white"/>
<path opacity="0.8" d="M64.1762 19.4527L60.8242 21.2279V24.7672L64.1762 19.4527Z" fill="white"/>
<path opacity="0.8" d="M60.8242 24.7672V21.2279L57.4844 19.4527L60.8242 24.7672Z" fill="white"/>
<path opacity="0.8" d="M67.5166 21.2291L70.8565 19.4534L67.5166 17.6888L64.1768 19.4534L67.5166 21.2291Z" fill="white"/>
<path opacity="0.8" d="M70.8565 19.4527L67.5166 21.2279V24.7672" fill="white"/>
<path opacity="0.8" d="M67.5166 24.7672V21.2279L64.1768 19.4527V22.992L67.5166 24.7672Z" fill="white"/>
<path opacity="0.8" d="M67.5161 24.7677L64.1762 22.9919L60.8242 24.7677H67.5161Z" fill="white"/>
<path opacity="0.8" d="M60.8242 24.7672L64.1762 22.992V19.4527L60.8242 24.7672Z" fill="white"/>
<path opacity="0.8" d="M64.1768 19.4543L67.5166 17.6905V14.1517L64.1768 19.4543Z" fill="white"/>
<path opacity="0.8" d="M67.5166 14.1517V17.6905L70.8565 19.4543L67.5166 14.1517Z" fill="white"/>
<path opacity="0.8" d="M60.8242 28.3035L57.4844 30.0676L60.8242 31.8427L64.1762 30.0676L60.8242 28.3035Z" fill="white"/>
<path opacity="0.8" d="M57.4844 26.53V30.0703L60.8242 28.3057V24.7654L57.4844 26.53Z" fill="white"/>
<path opacity="0.8" d="M60.8242 24.7654V28.3057L64.1762 30.0703V26.53L60.8242 24.7654Z" fill="white"/>
<path opacity="0.8" d="M60.8242 24.7654L64.1762 26.5311L67.5161 24.7654H60.8242Z" fill="white"/>
<path opacity="0.8" d="M67.5166 24.7654L64.1768 26.53V30.0703L67.5166 24.7654Z" fill="white"/>
<path opacity="0.8" d="M64.1762 30.0669L60.8242 31.8417V35.3803L64.1762 30.0669Z" fill="white"/>
<path opacity="0.8" d="M57.4835 30.0703V26.53L54.1436 24.7654L57.4835 30.0703Z" fill="white"/>
<path opacity="0.8" d="M60.8242 35.3803V31.8417L57.4844 30.0669L60.8242 35.3803Z" fill="white"/>
<path opacity="0.8" d="M54.1436 24.7654L57.4834 26.5311L60.8233 24.7654H54.1436Z" fill="white"/>
<path opacity="0.8" d="M47.4526 14.1517V17.6905L50.8046 19.4543L47.4526 14.1517Z" fill="white"/>
<path opacity="0.8" d="M47.4527 24.7672V21.2279L44.1128 19.4527L47.4527 24.7672Z" fill="white"/>
<path opacity="0.8" d="M40.7725 14.1517L44.1124 15.9174L47.4523 14.1517H40.7725Z" fill="white"/>
<path opacity="0.8" d="M54.1436 24.7672L57.4835 22.992V19.4527L54.1436 24.7672Z" fill="white"/>
<path opacity="0.8" d="M50.8037 19.4527V22.992L54.1436 24.7672L50.8037 19.4527Z" fill="white"/>
<path opacity="0.8" d="M57.4844 19.4527V22.992L60.8242 24.7672L57.4844 19.4527Z" fill="white"/>
<path opacity="0.8" d="M60.8233 24.7677L57.4834 22.9919L54.1436 24.7677H60.8233Z" fill="white"/>
<path opacity="0.8" d="M34.0815 14.1517V17.6905L37.4335 19.4543V15.9156L34.0815 14.1517Z" fill="white"/>
<path opacity="0.8" d="M34.0815 14.1517L37.4335 15.9174L40.7734 14.1517H34.0815Z" fill="white"/>
<g opacity="0.9">
<path opacity="0.9" d="M40.773 14.1524L37.4331 15.9162V19.455L40.773 14.1524Z" fill="white"/>
</g>
<path opacity="0.8" d="M27.4014 14.1517L30.7412 15.9174L34.0811 14.1517H27.4014Z" fill="white"/>
<path opacity="0.9" d="M40.7725 21.2291L44.1124 19.4534L40.7725 17.6888L37.4326 19.4534L40.7725 21.2291Z" fill="white"/>
<path opacity="0.8" d="M40.7725 24.7672V21.2279L37.4326 19.4527V22.992L40.7725 24.7672Z" fill="white"/>
<g opacity="0.95">
<path opacity="0.95" d="M37.4331 19.455L40.773 17.6911V14.1524" fill="white"/>
</g>
<path opacity="0.8" d="M44.1128 19.4527V22.992L47.4527 24.7672L44.1128 19.4527Z" fill="white"/>
<path opacity="0.8" d="M40.7725 14.1517V17.6905L44.1124 19.4543L40.7725 14.1517Z" fill="white"/>
<path opacity="0.8" d="M47.4527 28.3035L44.1128 30.0676L47.4527 31.8427L50.8047 30.0676L47.4527 28.3035Z" fill="white"/>
<path opacity="0.8" d="M44.1128 26.53V30.0703L47.4527 28.3057V24.7654L44.1128 26.53Z" fill="white"/>
<path opacity="0.8" d="M47.4526 24.7654V28.3057L50.8046 30.0703V26.53L47.4526 24.7654Z" fill="white"/>
<path opacity="0.8" d="M50.8046 30.0669L47.4526 31.8417V35.3803L50.8046 30.0669Z" fill="white"/>
<path opacity="0.8" d="M44.1124 30.0703V26.53L40.7725 24.7654L44.1124 30.0703Z" fill="white"/>
<g opacity="0.9">
<path opacity="0.9" d="M47.4527 17.6888L44.1128 19.4534L47.4527 21.2291L50.8046 19.4534L47.4527 17.6888Z" fill="white"/>
<path opacity="0.9" d="M54.1454 24.7671L50.8056 22.9918L47.4536 24.7671H54.1454Z" fill="white"/>
<path opacity="0.9" d="M47.4527 24.7671L44.1128 22.9918L40.7729 24.7671H47.4527Z" fill="white"/>
<path opacity="0.9" d="M47.4536 24.7665L50.8056 26.531L54.1454 24.7665H47.4536Z" fill="white"/>
<path opacity="0.9" d="M40.7729 24.7665L44.1128 26.531L47.4527 24.7665H40.7729Z" fill="white"/>
</g>
<path opacity="0.8" d="M54.1436 31.8427L57.4835 30.0676L54.1436 28.3035L50.8037 30.0676L54.1436 31.8427Z" fill="white"/>
<path opacity="0.8" d="M57.4835 33.6054V30.0669L54.1436 31.8417V35.3803L57.4835 33.6054Z" fill="white"/>
<path opacity="0.8" d="M54.1436 35.3803V31.8417L50.8037 30.0669V33.6054L54.1436 35.3803Z" fill="white"/>
<path opacity="0.8" d="M54.1445 35.3808L50.8046 33.6033L47.4526 35.3808H54.1445Z" fill="white"/>
<path opacity="0.8" d="M47.4526 35.3803L50.8046 33.6054V30.0669L47.4526 35.3803Z" fill="white"/>
<path opacity="0.8" d="M57.4844 30.0669V33.6054L60.8242 35.3803L57.4844 30.0669Z" fill="white"/>
<path opacity="0.8" d="M54.1436 24.7654V28.3057L57.4835 30.0703L54.1436 24.7654Z" fill="white"/>
<path opacity="0.8" d="M60.8233 35.3808L57.4834 33.6033L54.1436 35.3808H60.8233Z" fill="white"/>
<path opacity="0.8" d="M37.4335 30.0703V26.53L34.0815 24.7654L37.4335 30.0703Z" fill="white"/>
<path opacity="0.8" d="M40.7725 31.8427L44.1124 30.0676L40.7725 28.3035L37.4326 30.0676L40.7725 31.8427Z" fill="white"/>
<path opacity="0.8" d="M40.7725 35.3803V31.8417L37.4326 30.0669" fill="white"/>
<path opacity="0.8" d="M37.4326 30.0703L40.7725 28.3057V24.7654L37.4326 30.0703Z" fill="white"/>
<path opacity="0.8" d="M47.4523 35.3808L44.1124 33.6033L40.7725 35.3808H47.4523Z" fill="white"/>
<path opacity="0.8" d="M74.1963 14.1517H67.5166L70.8565 15.9174L74.1963 14.1517Z" fill="white"/>
</g>
<g opacity="0.6">
<path opacity="0.6" d="M60.8497 35.4023L57.522 37.1662V40.694" fill="white"/>
</g>
<g opacity="0.6">
<path opacity="0.6" d="M57.4863 40.6821V37.1434L54.1465 35.3796L57.4863 40.6821Z" fill="white"/>
</g>
<g opacity="0.6">
<path opacity="0.6" d="M54.1465 35.3796L57.4864 37.1441L60.8262 35.3796H54.1465Z" fill="white"/>
</g>
<g opacity="0.6">
<path opacity="0.6" d="M47.4532 38.917L44.1133 40.6812L47.4532 42.4454L50.8052 40.6812L47.4532 38.917Z" fill="white"/>
<path opacity="0.6" d="M44.1133 37.1434V40.6821L47.4532 38.9183V35.3796L44.1133 37.1434Z" fill="white"/>
<path opacity="0.6" d="M47.4531 35.3796V38.9183L50.8051 40.6821V37.1434L47.4531 35.3796Z" fill="white"/>
</g>
<g opacity="0.6">
<path opacity="0.6" d="M47.4536 35.379L50.8056 37.1435L54.1454 35.379H47.4536Z" fill="white"/>
</g>
<g opacity="0.6">
<path opacity="0.6" d="M54.1461 35.3796L50.8062 37.1434V40.6821L54.1461 35.3796Z" fill="white"/>
</g>
<g opacity="0.6">
<path opacity="0.6" d="M40.7729 35.3796L44.1129 37.1441L47.4528 35.3796H40.7729Z" fill="white"/>
</g>
<g opacity="0.6">
<path opacity="0.6" d="M50.8062 40.6821L54.1461 38.9183V35.3796L50.8062 40.6821Z" fill="white"/>
</g>
<g opacity="0.6">
<path opacity="0.6" d="M54.1465 35.3796V38.9183L57.4863 40.6821L54.1465 35.3796Z" fill="white"/>
</g>
<g opacity="0.6">
<path opacity="0.6" d="M30.7422 37.1434V40.6821L34.0821 38.9183V35.3796L30.7422 37.1434Z" fill="white"/>
</g>
<g opacity="0.6">
<path opacity="0.6" d="M40.7739 35.3796L37.4341 37.1434V40.6821L40.7739 35.3796Z" fill="white"/>
</g>
<g opacity="0.6">
<path opacity="0.6" d="M30.7413 40.6821V37.1434L27.4014 35.3796L30.7413 40.6821Z" fill="white"/>
</g>
<g opacity="0.6">
<path opacity="0.6" d="M34.0821 45.9841V42.4446L30.7422 40.6804L34.0821 45.9841Z" fill="white"/>
</g>
<g opacity="0.6">
<path opacity="0.6" d="M40.774 42.4449L44.1138 40.6807L40.774 38.9165L37.4341 40.6807L40.774 42.4449Z" fill="white"/>
</g>
<g opacity="0.6">
<path opacity="0.6" d="M34.082 45.9841L37.434 44.2199V40.6804L34.082 45.9841Z" fill="white"/>
</g>
<g opacity="0.6">
<path opacity="0.6" d="M37.4341 40.6821L40.7739 38.9183V35.3796L37.4341 40.6821Z" fill="white"/>
</g>
<g opacity="0.6">
<path opacity="0.6" d="M50.8056 51.2952L47.4536 53.0594V56.5989L50.8056 51.2952Z" fill="white"/>
</g>
<g opacity="0.6">
<path opacity="0.6" d="M44.1129 51.298V47.7584L40.7729 45.983L44.1129 51.298Z" fill="white"/>
</g>
<g opacity="0.6">
<path opacity="0.6" d="M47.4532 56.5988V53.0597L44.1133 51.2957L47.4532 56.5988Z" fill="white"/>
</g>
<g opacity="0.6">
<path opacity="0.6" d="M34.0821 49.5198L30.7422 51.2956L34.0821 53.0602L37.434 51.2956L34.0821 49.5198Z" fill="white"/>
<path opacity="0.6" d="M30.7422 47.7577V51.2974L34.0821 49.522V45.9824L30.7422 47.7577Z" fill="white"/>
</g>
<g opacity="0.6">
<path opacity="0.6" d="M40.7739 45.983L37.4341 47.7584V51.298L40.7739 45.983Z" fill="white"/>
</g>
<g opacity="0.6">
<path opacity="0.6" d="M37.434 51.2952L34.082 53.0594V56.5989L37.434 51.2952Z" fill="white"/>
</g>
<g opacity="0.6">
<path opacity="0.6" d="M30.7413 51.298V47.7584L27.4014 45.983" fill="white"/>
</g>
<g opacity="0.6">
<path opacity="0.6" d="M34.0821 56.5989V53.0594L30.7422 51.2952L34.0821 56.5989Z" fill="white"/>
</g>
<g opacity="0.6">
<path opacity="0.6" d="M27.4014 45.983L30.7412 47.7588L34.0811 45.983H27.4014Z" fill="white"/>
</g>
<g opacity="0.6">
<path opacity="0.6" d="M44.1138 54.8348V51.2957L40.7739 53.0597V56.5988L44.1138 54.8348Z" fill="white"/>
<path opacity="0.6" d="M40.7739 56.5988V53.0597L37.4341 51.2957V54.8348L40.7739 56.5988Z" fill="white"/>
</g>
<g opacity="0.6">
<path opacity="0.6" d="M40.7739 56.5988L37.434 54.8326L34.082 56.5988H40.7739Z" fill="white"/>
</g>
<g opacity="0.6">
<path opacity="0.6" d="M34.082 56.5989L37.434 54.8347V51.2952L34.082 56.5989Z" fill="white"/>
</g>
<g opacity="0.6">
<path opacity="0.6" d="M37.4341 51.298L40.7739 49.5227V45.983L37.4341 51.298Z" fill="white"/>
</g>
<g opacity="0.6">
<path opacity="0.6" d="M44.1133 51.2957V54.8348L47.4532 56.5988L44.1133 51.2957Z" fill="white"/>
</g>
<g opacity="0.6">
<path opacity="0.6" d="M40.7729 45.983V49.5227L44.1129 51.298L40.7729 45.983Z" fill="white"/>
</g>
<g opacity="0.6">
<path opacity="0.6" d="M47.4528 56.5988L44.1129 54.8326L40.7729 56.5988H47.4528Z" fill="white"/>
</g>
<g opacity="0.6">
<path opacity="0.6" d="M74.1973 14.1517L70.8574 15.9156V19.4543" fill="white"/>
</g>
<g opacity="0.6">
<path opacity="0.6" d="M70.857 19.4543V15.9156L67.5171 14.1517L70.857 19.4543Z" fill="white"/>
</g>
<g opacity="0.6">
<path opacity="0.6" d="M60.8252 17.6888L57.4854 19.4534L60.8252 21.2291L64.1772 19.4534L60.8252 17.6888Z" fill="white"/>
<path opacity="0.6" d="M60.8252 14.1517V17.6905L64.1772 19.4543V15.9156L60.8252 14.1517Z" fill="white"/>
</g>
<g opacity="0.6">
<path opacity="0.6" d="M60.8242 14.1517L64.1762 15.9174L67.5161 14.1517H60.8242Z" fill="white"/>
</g>
<g opacity="0.6">
<path opacity="0.6" d="M67.5176 14.1517L64.1777 15.9156V19.4543L67.5176 14.1517Z" fill="white"/>
</g>
<g opacity="0.6">
<path opacity="0.6" d="M67.5181 21.229L70.858 19.4535L67.5181 17.6892L64.1782 19.4535L67.5181 21.229Z" fill="white"/>
<path opacity="0.6" d="M70.8579 19.4526L67.5181 21.2278V24.7671" fill="white"/>
<path opacity="0.6" d="M67.5181 24.7671V21.2278L64.1782 19.4526V22.9919L67.5181 24.7671Z" fill="white"/>
</g>
<g opacity="0.6">
<path opacity="0.6" d="M64.1777 19.4543L67.5176 17.6905V14.1517L64.1777 19.4543Z" fill="white"/>
</g>
<g opacity="0.6">
<path opacity="0.6" d="M67.5171 14.1517V17.6905L70.857 19.4543L67.5171 14.1517Z" fill="white"/>
</g>
<g opacity="0.6">
<path opacity="0.6" d="M64.1762 30.0669L60.8242 31.8419V35.3808L64.1762 30.0669Z" fill="white"/>
</g>
<g opacity="0.6">
<path opacity="0.6" d="M60.8253 35.3803V31.8417L57.4854 30.0669L60.8253 35.3803Z" fill="white"/>
</g>
<g opacity="0.6">
<path opacity="0.6" d="M40.7729 14.1517L44.1129 15.9174L47.4528 14.1517H40.7729Z" fill="white"/>
</g>
<g opacity="0.6">
<path opacity="0.6" d="M34.082 14.1517V17.6905L37.434 19.4543V15.9156L34.082 14.1517Z" fill="white"/>
</g>
<g opacity="0.6">
<path opacity="0.6" d="M27.4014 14.1517V17.6905L30.7413 19.4543V15.9156L27.4014 14.1517Z" fill="white"/>
</g>
<g opacity="0.6">
<path opacity="0.6" d="M34.082 14.1517L37.434 15.9174L40.7739 14.1517H34.082Z" fill="white"/>
</g>
<g opacity="0.6">
<path opacity="0.6" d="M30.7413 19.4543V15.9156L27.4014 14.1517L30.7413 19.4543Z" fill="white"/>
</g>
<g opacity="0.6">
<path opacity="0.6" d="M27.4014 14.1517L30.7412 15.9174L34.0811 14.1517H27.4014Z" fill="white"/>
</g>
<path d="M34.082 24.7671L37.434 22.9919V19.4526L34.082 24.7671Z" fill="white"/>
<g opacity="0.6">
<path opacity="0.6" d="M50.8056 30.0669L47.4536 31.8419V35.3808L50.8056 30.0669Z" fill="white"/>
</g>
<g opacity="0.6">
<path opacity="0.6" d="M54.146 31.8428L57.4859 30.0673L54.146 28.303L50.8062 30.0673L54.146 31.8428Z" fill="white"/>
<path opacity="0.6" d="M57.4859 33.6054V30.0669L54.146 31.8417V35.3803L57.4859 33.6054Z" fill="white"/>
<path opacity="0.6" d="M54.1461 35.3803V31.8417L50.8062 30.0669V33.6054L54.1461 35.3803Z" fill="white"/>
</g>
<g opacity="0.6">
<path opacity="0.6" d="M54.1454 35.3801L50.8056 33.6031L47.4536 35.3801H54.1454Z" fill="white"/>
</g>
<g opacity="0.6">
<path opacity="0.6" d="M47.4536 35.3808L50.8056 33.6058V30.0669L47.4536 35.3808Z" fill="white"/>
</g>
<g opacity="0.6">
<path opacity="0.6" d="M57.4854 30.0669V33.6054L60.8253 35.3803L57.4854 30.0669Z" fill="white"/>
</g>
<g opacity="0.6">
<path opacity="0.6" d="M60.8262 35.3801L57.4864 33.6025L54.1465 35.3801H60.8262Z" fill="white"/>
</g>
<g opacity="0.6">
<path opacity="0.6" d="M34.082 24.7646V28.3041L37.434 30.0683V26.5288L34.082 24.7646Z" fill="white"/>
<path opacity="0.6" d="M30.7422 26.5288V30.0683L34.082 28.3041V24.7646L30.7422 26.5288Z" fill="white"/>
</g>
<g opacity="0.6">
<path opacity="0.6" d="M37.434 30.0669L34.082 31.8417V35.3803L37.434 30.0669Z" fill="white"/>
</g>
<g opacity="0.6">
<path opacity="0.6" d="M34.0821 35.3808V31.8419L30.7422 30.0669L34.0821 35.3808Z" fill="white"/>
</g>
<g opacity="0.6">
<path opacity="0.6" d="M27.4014 24.7646L30.7412 26.5325L34.0811 24.7646H27.4014Z" fill="white"/>
</g>
<g opacity="0.6">
<path opacity="0.6" d="M40.774 31.8428L44.1138 30.0673L40.774 28.303L37.4341 30.0673L40.774 31.8428Z" fill="white"/>
<path opacity="0.6" d="M44.1138 33.6054V30.0669L40.7739 31.8417V35.3803L44.1138 33.6054Z" fill="white"/>
</g>
<g opacity="0.6">
<path opacity="0.6" d="M40.7739 35.3801L37.434 33.6031L34.082 35.3801H40.7739Z" fill="white"/>
</g>
<g opacity="0.6">
<path opacity="0.6" d="M47.4528 35.3801L44.1129 33.6031L40.7729 35.3801H47.4528Z" fill="white"/>
</g>
<g opacity="0.6">
<path opacity="0.6" d="M24.0742 40.6804L20.7222 42.4446V45.9841L24.0742 40.6804Z" fill="white"/>
</g>
<g opacity="0.6">
<path opacity="0.6" d="M20.7217 45.9841V42.4446L17.3818 40.6804L20.7217 45.9841Z" fill="white"/>
</g>
<g opacity="0.6">
<path opacity="0.6" d="M27.4136 42.4449L30.7535 40.6807L27.4136 38.9165L24.0737 40.6807L27.4136 42.4449Z" fill="white"/>
<path opacity="0.6" d="M30.7535 44.2193V40.6798L27.4136 42.444V45.9835L30.7535 44.2193Z" fill="white"/>
</g>
<g opacity="0.6">
<path opacity="0.6" d="M27.414 45.9836L24.0741 44.218L20.7222 45.9836H27.414Z" fill="white"/>
</g>
<g opacity="0.6">
<path opacity="0.6" d="M30.7544 40.6804V44.2199L34.0943 45.9841L30.7544 40.6804Z" fill="white"/>
</g>
<g opacity="0.6">
<path opacity="0.6" d="M27.4136 35.3796V38.9183L30.7535 40.6821L27.4136 35.3796Z" fill="white"/>
</g>
<g opacity="0.6">
<path opacity="0.6" d="M20.7222 45.9824L24.0741 47.7577L27.414 45.9824H20.7222Z" fill="white"/>
</g>
<g opacity="0.6">
<path opacity="0.6" d="M20.7217 56.5989V53.0594L17.3818 51.2952L20.7217 56.5989Z" fill="white"/>
</g>
<g opacity="0.6">
<path opacity="0.6" d="M27.4136 53.0604L30.7535 51.2957L27.4136 49.52L24.0737 51.2957L27.4136 53.0604Z" fill="white"/>
</g>
<path d="M20.7227 56.5988L24.0746 54.8348V51.2957L20.7227 56.5988Z" fill="white"/>
<g opacity="0.6">
<path opacity="0.6" d="M24.0737 51.298L27.4136 49.5227V45.983L24.0737 51.298Z" fill="white"/>
</g>
<g opacity="0.6">
<path opacity="0.6" d="M17.3818 15.9156V19.4543L20.7217 17.6905V14.1517L17.3818 15.9156Z" fill="white"/>
</g>
<path d="M27.4141 14.1517L24.0742 15.9156V19.4543L27.4141 14.1517Z" fill="white"/>
<g opacity="0.6">
<path opacity="0.6" d="M24.0742 19.4526L20.7222 21.2278V24.7671L24.0742 19.4526Z" fill="white"/>
</g>
<g opacity="0.6">
<path opacity="0.6" d="M20.7217 24.7671V21.2278L17.3818 19.4526L20.7217 24.7671Z" fill="white"/>
</g>
<g opacity="0.6">
<path opacity="0.6" d="M27.414 24.7671L24.0741 22.9912L20.7222 24.7671H27.414Z" fill="white"/>
</g>
<g opacity="0.6">
<path opacity="0.6" d="M20.7222 24.7671L24.0742 22.9919V19.4526L20.7222 24.7671Z" fill="white"/>
</g>
<path d="M24.0742 22.9923L27.4141 21.2283V17.6892L24.0742 22.9923Z" fill="white"/>
<path d="M24.0742 19.4543L27.4141 17.6905V14.1517L24.0742 19.4543Z" fill="white"/>
<g opacity="0.6">
<path opacity="0.6" d="M34.0933 24.767L30.7534 22.9918L27.4136 24.767H34.0933Z" fill="white"/>
</g>
<g opacity="0.6">
<path opacity="0.6" d="M7.35162 17.6888L4.01172 19.4534L7.35162 21.2291L10.7036 19.4534L7.35162 17.6888Z" fill="white"/>
<path opacity="0.6" d="M7.35156 14.1517V17.6905L10.7036 19.4543V15.9156L7.35156 14.1517Z" fill="#F9294B"/>
</g>
<g opacity="0.6">
<path opacity="0.6" d="M14.0425 14.1517L10.7026 15.9156V19.4543L14.0425 14.1517Z" fill="white"/>
</g>
<g opacity="0.6">
<path opacity="0.6" d="M10.7026 19.4526L7.35059 21.2278V24.7671L10.7026 19.4526Z" fill="white"/>
</g>
<g opacity="0.6">
<path opacity="0.6" d="M0.671387 14.1517L4.01126 15.9174L7.35114 14.1517H0.671387Z" fill="white"/>
</g>
<g opacity="0.6">
<path opacity="0.6" d="M14.0425 21.2284L17.3824 19.4533L14.0425 17.6892L10.7026 19.4533L14.0425 21.2284Z" fill="white"/>
</g>
<g opacity="0.6">
<path opacity="0.6" d="M10.7026 19.4543L14.0425 17.6905V14.1517L10.7026 19.4543Z" fill="white"/>
</g>
<g opacity="0.6">
<path opacity="0.6" d="M20.7222 24.767L17.3824 22.9918L14.0425 24.767H20.7222Z" fill="white"/>
</g>
<g opacity="0.6">
<path opacity="0.6" d="M17.3818 30.0683L20.7217 28.3041V24.7646L17.3818 30.0683Z" fill="white"/>
</g>
<g opacity="0.6">
<path opacity="0.6" d="M27.4136 24.7646L24.0737 26.5288V30.0683L27.4136 24.7646Z" fill="white"/>
</g>
<g opacity="0.6">
<path opacity="0.6" d="M27.4136 31.8426L30.7535 30.0675L27.4136 28.3034L24.0737 30.0675L27.4136 31.8426Z" fill="white"/>
</g>
<g opacity="0.6">
<path opacity="0.6" d="M24.0737 30.0683L27.4136 28.3041V24.7646L24.0737 30.0683Z" fill="white"/>
</g>
<g opacity="0.6">
<path opacity="0.6" d="M30.7544 30.0669V33.6058L34.0943 35.3808L30.7544 30.0669Z" fill="white"/>
</g>
<g opacity="0.6">
<path opacity="0.6" d="M27.4136 24.7646V28.3041L30.7535 30.0683L27.4136 24.7646Z" fill="white"/>
</g>
<g opacity="0.6">
<path opacity="0.6" d="M7.35059 24.7646L10.7026 26.5325L14.0424 24.7646H7.35059Z" fill="white"/>
</g>
<path d="M10.6416 40.6804L13.9815 42.4466L17.3213 40.6804H10.6416Z" fill="white"/>
<path d="M30.7535 44.2195V40.6804L27.4136 42.4444V45.9835L30.7535 44.2195Z" fill="white"/>
<g opacity="0.9">
<path opacity="0.9" d="M30.7544 40.6804V44.2199L34.0943 45.9841L30.7544 40.6804Z" fill="white"/>
</g>
<path d="M27.4136 35.3796V38.9183L30.7535 40.6821L27.4136 35.3796Z" fill="white"/>
<path d="M54.146 42.4455L57.4859 40.6813L54.146 38.9171L50.8062 40.6813L54.146 42.4455Z" fill="white"/>
<path d="M57.4859 40.6804L54.146 42.4444V45.9835" fill="white"/>
<path d="M54.146 35.3796V38.9183L57.4859 40.6821L54.146 35.3796Z" fill="white"/>
<path d="M14.0425 21.2278L17.3824 19.453L14.0425 17.6892L10.7026 19.453L14.0425 21.2278Z" fill="white"/>
<path d="M10.7026 19.4543L14.0425 17.6905V14.1517L10.7026 19.4543Z" fill="white"/>
<g opacity="0.6">
<path opacity="0.6" d="M34.082 10.6138V14.1529L37.434 15.9169V12.3778L34.082 10.6138Z" fill="white"/>
</g>
<g opacity="0.6">
<path opacity="0.6" d="M24.0742 5.30084L20.7222 7.07585V10.6148L24.0742 5.30084Z" fill="white"/>
</g>
<g opacity="0.6">
<path opacity="0.6" d="M17.3824 5.30312V1.76401L14.0425 0L17.3824 5.30312Z" fill="white"/>
</g>
<g opacity="0.6">
<path opacity="0.6" d="M20.7217 10.6148V7.07585L17.3818 5.30084L20.7217 10.6148Z" fill="white"/>
</g>
<path d="M30.7548 8.83777L27.4149 10.6132H27.4028L30.7427 12.3775L34.0826 10.6132H34.0947L30.7548 8.83777Z" fill="white"/>
<g opacity="0.6">
<path opacity="0.6" d="M20.7222 10.6146L17.3824 8.83765L14.0425 10.6146H20.7222Z" fill="white"/>
</g>
<path d="M27.4141 10.6136L24.0742 12.3777V15.9168L27.4141 10.6136Z" fill="white"/>
<g opacity="0.6">
<path opacity="0.6" d="M14.0425 10.6138L17.3824 12.3788L20.7222 10.6138H14.0425Z" fill="white"/>
</g>
<g opacity="0.6">
<path opacity="0.6" d="M24.0737 15.9169L27.4136 14.1529V10.6138L24.0737 15.9169Z" fill="white"/>
</g>
<g opacity="0.6">
<path opacity="0.6" d="M27.4136 10.6138V14.1529L30.7535 15.9169L27.4136 10.6138Z" fill="white"/>
</g>
<path d="M20.7222 10.6148L17.3824 8.83777L14.0425 10.6148H20.7222Z" fill="white"/>
<path d="M27.4136 45.983V49.5227L30.7535 51.298L27.4136 45.983Z" fill="white"/>
<g opacity="0.6">
<path opacity="0.6" d="M34.0933 56.5988L30.7534 54.8326L27.4136 56.5988" fill="white"/>
</g>
<g opacity="0.6">
<path opacity="0.6" d="M17.3824 40.6804L14.0425 42.4446V45.9841L17.3824 40.6804Z" fill="white"/>
</g>
<path d="M27.4145 45.9841L24.0746 44.2184L20.7227 45.9841H27.4145Z" fill="#F9294B"/>
<g opacity="0.6">
<path opacity="0.6" d="M24.0742 51.2974V47.7577L20.7222 45.9824L24.0742 51.2974Z" fill="white"/>
</g>
<g opacity="0.6">
<path opacity="0.6" d="M14.0425 45.9824L17.3824 47.7577L20.7222 45.9824H14.0425Z" fill="white"/>
</g>
<g opacity="0.6">
<path opacity="0.6" d="M20.7217 45.9824L17.3818 47.7577V51.2974L20.7217 45.9824Z" fill="white"/>
</g>
<g opacity="0.6">
<path opacity="0.6" d="M10.7026 51.298V47.7584L7.35059 45.983L10.7026 51.298Z" fill="white"/>
</g>
<g opacity="0.6">
<path opacity="0.6" d="M7.35059 45.983L10.7026 47.7588L14.0424 45.983H7.35059Z" fill="white"/>
</g>
<g opacity="0.6">
<path opacity="0.6" d="M20.7222 45.9824V49.522L24.0742 51.2974L20.7222 45.9824Z" fill="white"/>
</g>
<path d="M20.7227 45.983V49.5227L24.0746 51.298V47.7584L20.7227 45.983Z" fill="white"/>
<path d="M14.0425 45.983L17.3824 47.7588L20.7222 45.983H14.0425Z" fill="white"/>
<g opacity="0.6">
<path opacity="0.6" d="M44.1133 51.2952V54.8345L47.4532 53.0593V49.52L44.1133 51.2952Z" fill="white"/>
</g>
<g opacity="0.6">
<path opacity="0.6" d="M40.7729 49.52L44.1129 51.2976L47.4528 49.52H40.7729Z" fill="white"/>
</g>
<g opacity="0.6">
<path opacity="0.6" d="M30.7422 51.2952V54.8345L34.0821 53.0593V49.52L30.7422 51.2952Z" fill="white"/>
<path opacity="0.6" d="M34.082 49.52V53.0593L37.434 54.8345V51.2952L34.082 49.52Z" fill="white"/>
</g>
<g opacity="0.6">
<path opacity="0.6" d="M40.7739 49.52L37.4341 51.2952V54.8345L40.7739 49.52Z" fill="white"/>
</g>
<g opacity="0.6">
<path opacity="0.6" d="M30.7413 54.8345V51.2952L27.4014 49.52L30.7413 54.8345Z" fill="white"/>
</g>
<g opacity="0.6">
<path opacity="0.6" d="M34.0821 60.1352V56.5965L30.7422 54.8326L34.0821 60.1352Z" fill="white"/>
</g>
<g opacity="0.6">
<path opacity="0.6" d="M40.774 56.5988L44.1138 54.8348L40.774 53.0596L37.4341 54.8348L40.774 56.5988Z" fill="white"/>
<path opacity="0.6" d="M44.1138 58.373V54.8339L40.7739 56.5979V60.137L44.1138 58.373Z" fill="white"/>
<path opacity="0.6" d="M40.7739 60.137V56.5979L37.4341 54.8339V58.373L40.7739 60.137Z" fill="white"/>
</g>
<g opacity="0.6">
<path opacity="0.6" d="M34.082 60.1352L37.434 58.3714V54.8326L34.082 60.1352Z" fill="white"/>
</g>
<g opacity="0.6">
<path opacity="0.6" d="M37.4341 54.8345L40.7739 53.0593V49.52L37.4341 54.8345Z" fill="white"/>
</g>
<g opacity="0.6">
<path opacity="0.6" d="M30.7422 61.9095V65.4492L34.0821 63.6738V60.1341L30.7422 61.9095Z" fill="white"/>
</g>
<g opacity="0.6">
<path opacity="0.6" d="M40.7739 60.1345L37.4341 61.9099V65.4496L40.7739 60.1345Z" fill="white"/>
</g>
<g opacity="0.6">
<path opacity="0.6" d="M27.4014 60.1345L30.7412 61.9104L34.0811 60.1345H27.4014Z" fill="white"/>
</g>
<g opacity="0.6">
<path opacity="0.6" d="M24.0742 54.8326L20.7222 56.5965V60.1352L24.0742 54.8326Z" fill="white"/>
</g>
<g opacity="0.6">
<path opacity="0.6" d="M20.7217 60.1352V56.5965L17.3818 54.8326L20.7217 60.1352Z" fill="white"/>
</g>
<g opacity="0.6">
<path opacity="0.6" d="M30.7535 58.3714V54.8326L27.4136 56.5965V60.1352L30.7535 58.3714Z" fill="white"/>
</g>
<g opacity="0.6">
<path opacity="0.6" d="M27.414 60.1352L24.0741 58.3719L20.7222 60.1352H27.414Z" fill="white"/>
</g>
<g opacity="0.6">
<path opacity="0.6" d="M30.7544 54.8326V58.3714L34.0943 60.1352L30.7544 54.8326Z" fill="white"/>
</g>
<g opacity="0.6">
<path opacity="0.6" d="M27.4136 49.52V53.0593L30.7535 54.8345L27.4136 49.52Z" fill="white"/>
</g>
<g opacity="0.6">
<path opacity="0.6" d="M24.0742 65.4457L20.7222 67.2097V70.7489L24.0742 65.4457Z" fill="#F9294B"/>
</g>
<g opacity="0.6">
<path opacity="0.6" d="M24.0737 65.4492L27.4136 63.6738V60.1341L24.0737 65.4492Z" fill="white"/>
</g>
<path d="M10.6416 54.8326L13.9815 56.5988L17.3213 54.8326H10.6416Z" fill="white"/>
<path d="M30.7535 58.3714V54.8326L27.4136 56.5965V60.1352L30.7535 58.3714Z" fill="white"/>
<path d="M30.7539 54.8326V58.3714L34.0938 60.1352L30.7539 54.8326Z" fill="white"/>
<path d="M27.4136 49.5199V53.0592L30.7535 54.8344L27.4136 49.5199Z" fill="white"/>
<g opacity="0.6">
<path opacity="0.6" d="M17.3824 54.8326L14.0425 56.5965V60.1352L17.3824 54.8326Z" fill="white"/>
</g>
<g opacity="0.6">
<path opacity="0.6" d="M24.0742 65.4492V61.9095L20.7222 60.1341L24.0742 65.4492Z" fill="white"/>
</g>
<g opacity="0.6">
<path opacity="0.6" d="M14.0425 60.1341L17.3824 61.91L20.7222 60.1341H14.0425Z" fill="white"/>
</g>
<g opacity="0.6">
<path opacity="0.6" d="M20.7217 60.1341L17.3818 61.9095V65.4492L20.7217 60.1341Z" fill="white"/>
</g>
<g opacity="0.6">
<path opacity="0.6" d="M10.7026 65.4496V61.9099L7.35059 60.1345L10.7026 65.4496Z" fill="white"/>
</g>
<g opacity="0.6">
<path opacity="0.6" d="M7.35059 60.1345L10.7026 61.9104L14.0424 60.1345H7.35059Z" fill="white"/>
</g>
<g opacity="0.6">
<path opacity="0.6" d="M14.0425 70.75L17.3824 68.9856V65.4457L14.0425 70.75Z" fill="white"/>
</g>
<g opacity="0.6">
<path opacity="0.6" d="M20.7222 60.1341V63.6738L24.0742 65.4492L20.7222 60.1341Z" fill="white"/>
</g>
<path d="M17.3833 65.4457L20.7232 67.2125L24.0751 65.4457" fill="#F9294B"/>
<path d="M20.7227 60.1346V63.6743L24.0746 65.4497V61.91L20.7227 60.1346Z" fill="white"/>
<path d="M14.0425 60.1346L17.3824 61.9105L20.7222 60.1346H14.0425Z" fill="white"/>
<g opacity="0.7">
<path opacity="0.7" d="M32.3271 61.0659V62.9295L34.0818 61.9977V60.1341L32.3271 61.0659Z" fill="white"/>
</g>
<path d="M34.082 21.2278V24.7671L37.434 22.9919V19.4526L34.082 21.2278Z" fill="white"/>
<path opacity="0.9" d="M37.4336 19.4526V22.9919L40.7735 24.7671V21.2278L37.4336 19.4526Z" fill="white"/>
<path d="M44.1133 19.4526L40.7734 21.2278V24.7671L44.1133 19.4526Z" fill="white"/>
<path d="M40.7735 24.7653L37.4336 26.5297V30.0696L40.7735 24.7653Z" fill="white"/>
<g opacity="0.9">
<path opacity="0.9" d="M34.0821 24.7671V21.2278L30.7422 19.4526L34.0821 24.7671Z" fill="white"/>
</g>
<g opacity="0.9">
<path opacity="0.9" d="M30.7422 19.4526L34.0821 21.2324L37.434 19.4526H30.7422Z" fill="white"/>
</g>
<g style="mix-blend-mode:multiply" opacity="0.2">
<g style="mix-blend-mode:multiply" opacity="0.2">
<path d="M60.8262 21.2291L64.1782 19.4534L60.8262 17.6888L57.4863 19.4534L60.8262 21.2291Z" fill="white"/>
</g>
<g style="mix-blend-mode:multiply" opacity="0.2">
<path d="M64.1786 22.992V19.4527L60.8267 21.2279V24.7672L64.1786 22.992Z" fill="white"/>
</g>
<g style="mix-blend-mode:multiply" opacity="0.2">
<path d="M60.8262 24.7672V21.2279L57.4863 19.4527V22.992L60.8262 24.7672Z" fill="white"/>
</g>
<g style="mix-blend-mode:multiply" opacity="0.2">
<path d="M60.8262 24.7677L57.4864 22.9919L54.1465 24.7677H60.8262Z" fill="white"/>
</g>
<g style="mix-blend-mode:multiply" opacity="0.2">
<path d="M54.1465 24.7672L57.4863 22.992V19.4527L54.1465 24.7672Z" fill="white"/>
</g>
<g style="mix-blend-mode:multiply" opacity="0.2">
<path d="M57.4863 19.4543L60.8262 17.6905V14.1517L57.4863 19.4543Z" fill="white"/>
</g>
<g style="mix-blend-mode:multiply" opacity="0.2">
<path d="M64.1777 19.4527V22.992L67.5176 24.7672L64.1777 19.4527Z" fill="white"/>
</g>
<g style="mix-blend-mode:multiply" opacity="0.2">
<path d="M60.8267 14.1517V17.6905L64.1786 19.4543L60.8267 14.1517Z" fill="white"/>
</g>
<g style="mix-blend-mode:multiply" opacity="0.2">
<path d="M67.5186 24.7677L64.1787 22.9919L60.8267 24.7677H67.5186Z" fill="white"/>
</g>
</g>
<path d="M10.7031 19.4543V15.9156L7.35107 14.1517" fill="#F9294B"/>
<path d="M20.7227 24.7653V28.3052L24.0746 30.0696V26.5297L20.7227 24.7653Z" fill="#F9294B"/>
<path d="M27.4136 3.54828V7.08777L30.7535 8.85197V5.31248L27.4136 3.54828Z" fill="white"/>
<g opacity="0.6">
<path opacity="0.6" d="M54.1465 35.3796L57.4864 37.1441L60.8262 35.3796H54.1465Z" fill="white"/>
</g>
<g opacity="0.6">
<path opacity="0.6" d="M60.8253 35.3803V31.8417L57.4854 30.0669L60.8253 35.3803Z" fill="white"/>
</g>
<path d="M64.1772 30.0668L60.8252 31.8416V35.3801" fill="white"/>
<g opacity="0.6">
<path opacity="0.6" d="M57.4854 30.0669V33.6054L60.8253 35.3803L57.4854 30.0669Z" fill="white"/>
</g>
<g opacity="0.6">
<path opacity="0.6" d="M60.8262 35.3801L57.4864 33.6025L54.1465 35.3801H60.8262Z" fill="white"/>
</g>
<path d="M60.8497 35.4017L57.522 37.1658V40.6941" fill="white"/>
<path d="M70.8575 15.9151L67.5176 14.1517L64.1656 15.9151L60.8257 14.1517L57.4858 19.453L54.1459 24.7544V28.2923L50.7939 30.0668L54.1459 35.3681H47.4543V38.906L44.1144 40.6805V44.2184L40.7745 45.9818V49.5197L37.4346 51.2942L34.0826 53.0576L30.7427 54.8321L27.4028 56.5955H47.4543L50.7939 51.2942L54.1459 45.9818L57.4858 40.6805L60.8257 35.3681L64.1656 30.0668L60.8257 31.8302L64.1656 30.0668L67.5176 24.7544L70.8575 19.453L74.1974 14.1517L70.8575 15.9151ZM50.7939 40.6805L47.4543 42.4439L50.7939 40.6805ZM57.4858 33.6047L54.1459 35.3681L57.4858 33.6047L60.8257 35.3681L57.4858 33.6047Z" fill="url(#paint0_linear_476_27647)"/>
<path opacity="0.9" d="M37.434 22.9918L34.082 24.7663L37.434 26.5298L40.7739 24.7663L37.434 22.9918Z" fill="white"/>
<path d="M40.7734 42.4444V45.9835L44.1133 44.2195V40.6804L40.7734 42.4444Z" fill="white"/>
<path opacity="0.8" d="M37.4336 40.6804V44.2195L40.7735 45.9835V42.4444L37.4336 40.6804Z" fill="white"/>
<path opacity="0.8" d="M34.082 35.3796V38.9183L37.434 40.6821V37.1434L34.082 35.3796Z" fill="white"/>
<path d="M47.4532 14.1517L44.1133 15.9156V19.4543L47.4532 17.6905V14.1517Z" fill="white"/>
<path d="M47.4531 21.2278V24.7671L50.8051 22.9919V19.4526L47.4531 21.2278Z" fill="white"/>
<path d="M27.4136 3.54828V7.08777L30.7535 8.85197V5.31248L27.4136 3.54828Z" fill="#F9294B"/>
<g opacity="0.6">
<path opacity="0.6" d="M54.1465 35.3796L57.4864 37.1441L60.8262 35.3796H54.1465Z" fill="white"/>
</g>
<g opacity="0.6">
<path opacity="0.6" d="M60.8253 35.3803V31.8417L57.4854 30.0669L60.8253 35.3803Z" fill="white"/>
</g>
<path d="M64.1772 30.0668L60.8252 31.8416V35.3801" fill="white"/>
<g opacity="0.6">
<path opacity="0.6" d="M57.4854 30.0669V33.6054L60.8253 35.3803L57.4854 30.0669Z" fill="white"/>
</g>
<g opacity="0.6">
<path opacity="0.6" d="M60.8262 35.3801L57.4864 33.6025L54.1465 35.3801H60.8262Z" fill="white"/>
</g>
<path d="M60.8497 35.4017L57.522 37.1658V40.6941" fill="white"/>
<g opacity="0.2">
<g opacity="0.8">
<path opacity="0.8" d="M60.7515 35.3802L57.4116 37.1441V40.6828" stroke="#252525" stroke-width="0.07" stroke-miterlimit="10"/>
<path opacity="0.8" d="M57.4126 40.6828V37.1441L54.0728 35.3802L57.4126 40.6828Z" stroke="#252525" stroke-width="0.07" stroke-miterlimit="10"/>
<path opacity="0.8" d="M54.0728 35.3802L57.4126 37.1442L60.7525 35.3802H54.0728Z" stroke="#252525" stroke-width="0.07" stroke-miterlimit="10"/>
<path opacity="0.8" d="M44.041 37.1441V40.6828L47.3809 38.919V35.3802L44.041 37.1441Z" stroke="#252525" stroke-width="0.07" stroke-miterlimit="10"/>
<path opacity="0.8" d="M47.3804 35.3802V38.919L50.7203 40.6828V37.1441L47.3804 35.3802Z" stroke="#252525" stroke-width="0.07" stroke-miterlimit="10"/>
<path opacity="0.8" d="M47.3804 35.3802L50.7203 37.1442L54.0723 35.3802H47.3804Z" stroke="#252525" stroke-width="0.07" stroke-miterlimit="10"/>
<path opacity="0.8" d="M54.0717 35.3802L50.7197 37.1441V40.6828L54.0717 35.3802Z" stroke="#252525" stroke-width="0.07" stroke-miterlimit="10"/>
<path opacity="0.8" d="M50.7203 40.6805L47.3804 42.4451V45.9854L50.7203 40.6805Z" stroke="#252525" stroke-width="0.07" stroke-miterlimit="10"/>
<path opacity="0.8" d="M47.3809 45.9854V42.4451L44.041 40.6805L47.3809 45.9854Z" stroke="#252525" stroke-width="0.07" stroke-miterlimit="10"/>
<path opacity="0.8" d="M54.0717 42.4456L57.4116 40.6814L54.0717 38.9172L50.7197 40.6814L54.0717 42.4456Z" stroke="#252525" stroke-width="0.07" stroke-miterlimit="10"/>
<path opacity="0.8" d="M57.4126 40.6805L54.0728 42.4451V45.9854" stroke="#252525" stroke-width="0.07" stroke-miterlimit="10"/>
<path opacity="0.8" d="M54.0717 45.9854V42.4451L50.7197 40.6805V44.2208L54.0717 45.9854Z" stroke="#252525" stroke-width="0.07" stroke-miterlimit="10"/>
<path opacity="0.8" d="M54.0723 45.9853L50.7203 44.2186L47.3804 45.9853H54.0723Z" stroke="#252525" stroke-width="0.07" stroke-miterlimit="10"/>
<path opacity="0.8" d="M47.3804 45.9854L50.7203 44.2208V40.6805L47.3804 45.9854Z" stroke="#252525" stroke-width="0.07" stroke-miterlimit="10"/>
<path opacity="0.8" d="M50.7197 40.6828L54.0717 38.919V35.3802L50.7197 40.6828Z" stroke="#252525" stroke-width="0.07" stroke-miterlimit="10"/>
<path opacity="0.8" d="M54.0728 35.3802V38.919L57.4126 40.6828L54.0728 35.3802Z" stroke="#252525" stroke-width="0.07" stroke-miterlimit="10"/>
<path opacity="0.8" d="M44.041 40.6805V44.2208L47.3809 45.9854" stroke="#252525" stroke-width="0.07" stroke-miterlimit="10"/>
<path opacity="0.8" d="M47.3799 45.9853L44.0401 44.2186L40.7002 45.9853H47.3799Z" stroke="#252525" stroke-width="0.07" stroke-miterlimit="10"/>
<path opacity="0.8" d="M47.3809 49.52L44.041 51.2957L47.3809 53.0604L50.7208 51.2957L47.3809 49.52Z" stroke="#252525" stroke-width="0.07" stroke-miterlimit="10"/>
<path opacity="0.8" d="M44.041 47.7585V51.2982L47.3809 49.5228V45.9831L44.041 47.7585Z" stroke="#252525" stroke-width="0.07" stroke-miterlimit="10"/>
<path opacity="0.8" d="M47.3804 45.9831V49.5228L50.7203 51.2982V47.7585L47.3804 45.9831Z" stroke="#252525" stroke-width="0.07" stroke-miterlimit="10"/>
<path opacity="0.8" d="M47.3804 45.9831L50.7203 47.7595L54.0723 45.9831H47.3804Z" stroke="#252525" stroke-width="0.07" stroke-miterlimit="10"/>
<path opacity="0.8" d="M54.0717 45.9831L50.7197 47.7585V51.2982L54.0717 45.9831Z" stroke="#252525" stroke-width="0.07" stroke-miterlimit="10"/>
<path opacity="0.8" d="M50.7203 51.2958L47.3804 53.0598V56.599L50.7203 51.2958Z" stroke="#252525" stroke-width="0.07" stroke-miterlimit="10"/>
<path opacity="0.8" d="M44.0401 51.2982V47.7585L40.7002 45.9831L44.0401 51.2982Z" stroke="#252525" stroke-width="0.07" stroke-miterlimit="10"/>
<path opacity="0.8" d="M47.3809 56.599V53.0598L44.041 51.2958L47.3809 56.599Z" stroke="#252525" stroke-width="0.07" stroke-miterlimit="10"/>
<path opacity="0.8" d="M40.7002 45.9831L44.0401 47.7595L47.3799 45.9831H40.7002Z" stroke="#252525" stroke-width="0.07" stroke-miterlimit="10"/>
<path opacity="0.8" d="M44.0401 54.8349V51.2958L40.7002 53.0598V56.599L44.0401 54.8349Z" stroke="#252525" stroke-width="0.07" stroke-miterlimit="10"/>
<path opacity="0.8" d="M40.7011 56.599V53.0598L37.3491 51.2958V54.8349L40.7011 56.599Z" stroke="#252525" stroke-width="0.07" stroke-miterlimit="10"/>
<path opacity="0.8" d="M40.7012 56.599L37.3492 54.8328L34.0093 56.599H40.7012Z" stroke="#252525" stroke-width="0.07" stroke-miterlimit="10"/>
<path opacity="0.8" d="M44.041 51.2958V54.8349L47.3809 56.599L44.041 51.2958Z" stroke="#252525" stroke-width="0.07" stroke-miterlimit="10"/>
<path opacity="0.8" d="M40.7002 45.9831V49.5228L44.0401 51.2982L40.7002 45.9831Z" stroke="#252525" stroke-width="0.07" stroke-miterlimit="10"/>
<path opacity="0.8" d="M47.3799 56.599L44.0401 54.8328L40.7002 56.599H47.3799Z" stroke="#252525" stroke-width="0.07" stroke-miterlimit="10"/>
<path opacity="0.8" d="M74.1246 14.1517L70.7847 15.9157V19.4549" stroke="#252525" stroke-width="0.07" stroke-miterlimit="10"/>
<path opacity="0.8" d="M70.7841 19.4549V15.9157L67.4321 14.1517L70.7841 19.4549Z" stroke="#252525" stroke-width="0.07" stroke-miterlimit="10"/>
<path opacity="0.8" d="M67.4321 14.1517L70.7841 15.9174L74.124 14.1517H67.4321Z" stroke="#252525" stroke-width="0.07" stroke-miterlimit="10"/>
<path opacity="0.8" d="M60.7515 17.6888L57.4116 19.4534L60.7515 21.2291L64.0914 19.4534L60.7515 17.6888Z" stroke="#252525" stroke-width="0.07" stroke-miterlimit="10"/>
<path opacity="0.8" d="M57.4116 19.4549L60.7515 17.6908V14.1517L57.4116 19.4549Z" stroke="#252525" stroke-width="0.07" stroke-miterlimit="10"/>
<path opacity="0.8" d="M60.7515 14.1517V17.6908L64.0913 19.4549V15.9157L60.7515 14.1517Z" stroke="#252525" stroke-width="0.07" stroke-miterlimit="10"/>
<path opacity="0.8" d="M60.7515 14.1517L64.0913 15.9174L67.4312 14.1517H60.7515Z" stroke="#252525" stroke-width="0.07" stroke-miterlimit="10"/>
<path opacity="0.8" d="M67.4322 14.1517L64.0923 15.9157V19.4549L67.4322 14.1517Z" stroke="#252525" stroke-width="0.07" stroke-miterlimit="10"/>
<path opacity="0.8" d="M64.0913 19.4527L60.7515 21.2279V24.7672L64.0913 19.4527Z" stroke="#252525" stroke-width="0.07" stroke-miterlimit="10"/>
<path opacity="0.8" d="M60.7515 24.7672V21.2279L57.4116 19.4527L60.7515 24.7672Z" stroke="#252525" stroke-width="0.07" stroke-miterlimit="10"/>
<path opacity="0.8" d="M67.4322 21.2291L70.7842 19.4534L67.4322 17.6888L64.0923 19.4534L67.4322 21.2291Z" stroke="#252525" stroke-width="0.07" stroke-miterlimit="10"/>
<path opacity="0.8" d="M70.7841 19.4527L67.4321 21.2279V24.7672" stroke="#252525" stroke-width="0.07" stroke-miterlimit="10"/>
<path opacity="0.8" d="M67.4322 24.7672V21.2279L64.0923 19.4527V22.992L67.4322 24.7672Z" stroke="#252525" stroke-width="0.07" stroke-miterlimit="10"/>
<path opacity="0.8" d="M67.4312 24.7672L64.0913 22.9919L60.7515 24.7672H67.4312Z" stroke="#252525" stroke-width="0.07" stroke-miterlimit="10"/>
<path opacity="0.8" d="M60.7515 24.7672L64.0913 22.992V19.4527L60.7515 24.7672Z" stroke="#252525" stroke-width="0.07" stroke-miterlimit="10"/>
<path opacity="0.8" d="M64.0923 19.4549L67.4322 17.6908V14.1517L64.0923 19.4549Z" stroke="#252525" stroke-width="0.07" stroke-miterlimit="10"/>
<path opacity="0.8" d="M67.4321 14.1517V17.6908L70.7841 19.4549L67.4321 14.1517Z" stroke="#252525" stroke-width="0.07" stroke-miterlimit="10"/>
<path opacity="0.8" d="M60.7515 28.3035L57.4116 30.0676L60.7515 31.8427L64.0914 30.0676L60.7515 28.3035Z" stroke="#252525" stroke-width="0.07" stroke-miterlimit="10"/>
<path opacity="0.8" d="M57.4116 26.53V30.0703L60.7515 28.3057V24.7654L57.4116 26.53Z" stroke="#252525" stroke-width="0.07" stroke-miterlimit="10"/>
<path opacity="0.8" d="M60.7515 24.7654V28.3057L64.0913 30.0703V26.53L60.7515 24.7654Z" stroke="#252525" stroke-width="0.07" stroke-miterlimit="10"/>
<path opacity="0.8" d="M60.7515 24.7654L64.0913 26.5311L67.4312 24.7654H60.7515Z" stroke="#252525" stroke-width="0.07" stroke-miterlimit="10"/>
<path opacity="0.8" d="M67.4322 24.7654L64.0923 26.53V30.0703L67.4322 24.7654Z" stroke="#252525" stroke-width="0.07" stroke-miterlimit="10"/>
<path opacity="0.8" d="M64.0913 30.0669L60.7515 31.8417V35.3803L64.0913 30.0669Z" stroke="#252525" stroke-width="0.07" stroke-miterlimit="10"/>
<path opacity="0.8" d="M57.4126 30.0703V26.53L54.0728 24.7654L57.4126 30.0703Z" stroke="#252525" stroke-width="0.07" stroke-miterlimit="10"/>
<path opacity="0.8" d="M60.7515 35.3803V31.8417L57.4116 30.0669L60.7515 35.3803Z" stroke="#252525" stroke-width="0.07" stroke-miterlimit="10"/>
<path opacity="0.8" d="M54.0728 24.7654L57.4126 26.5311L60.7525 24.7654H54.0728Z" stroke="#252525" stroke-width="0.07" stroke-miterlimit="10"/>
<path opacity="0.8" d="M64.0913 30.0669L60.7515 35.3803" stroke="#252525" stroke-width="0.07" stroke-miterlimit="10"/>
<path opacity="0.8" d="M67.4322 24.7654L64.0923 30.0703" stroke="#252525" stroke-width="0.07" stroke-miterlimit="10"/>
<path opacity="0.8" d="M54.0728 24.7672L57.4126 22.992V19.4527L54.0728 24.7672Z" stroke="#252525" stroke-width="0.07" stroke-miterlimit="10"/>
<path opacity="0.8" d="M57.4116 19.4527V22.992L60.7515 24.7672L57.4116 19.4527Z" stroke="#252525" stroke-width="0.07" stroke-miterlimit="10"/>
<path opacity="0.8" d="M60.7525 24.7672L57.4126 22.9919L54.0728 24.7672H60.7525Z" stroke="#252525" stroke-width="0.07" stroke-miterlimit="10"/>
<path opacity="0.8" d="M50.7203 30.0669L47.3804 31.8417V35.3803L50.7203 30.0669Z" stroke="#252525" stroke-width="0.07" stroke-miterlimit="10"/>
<path opacity="0.8" d="M54.0717 31.8427L57.4116 30.0676L54.0717 28.3035L50.7197 30.0676L54.0717 31.8427Z" stroke="#252525" stroke-width="0.07" stroke-miterlimit="10"/>
<path opacity="0.8" d="M57.4126 33.6054V30.0669L54.0728 31.8417V35.3803L57.4126 33.6054Z" stroke="#252525" stroke-width="0.07" stroke-miterlimit="10"/>
<path opacity="0.8" d="M54.0717 35.3803V31.8417L50.7197 30.0669V33.6054L54.0717 35.3803Z" stroke="#252525" stroke-width="0.07" stroke-miterlimit="10"/>
<path opacity="0.8" d="M54.0723 35.3803L50.7203 33.6033L47.3804 35.3803H54.0723Z" stroke="#252525" stroke-width="0.07" stroke-miterlimit="10"/>
<path opacity="0.8" d="M47.3804 35.3803L50.7203 33.6054V30.0669L47.3804 35.3803Z" stroke="#252525" stroke-width="0.07" stroke-miterlimit="10"/>
<path opacity="0.8" d="M57.4116 30.0669V33.6054L60.7515 35.3803L57.4116 30.0669Z" stroke="#252525" stroke-width="0.07" stroke-miterlimit="10"/>
<path opacity="0.8" d="M54.0728 24.7654V28.3057L57.4126 30.0703L54.0728 24.7654Z" stroke="#252525" stroke-width="0.07" stroke-miterlimit="10"/>
<path opacity="0.8" d="M60.7525 35.3803L57.4126 33.6033L54.0728 35.3803H60.7525Z" stroke="#252525" stroke-width="0.07" stroke-miterlimit="10"/>
<path opacity="0.8" d="M74.124 14.1517H67.4321L70.7841 15.9174L74.124 14.1517Z" stroke="#252525" stroke-width="0.07" stroke-miterlimit="10"/>
</g>
</g>
<path d="M61.5265 14.1517H74.2689L47.5377 56.5955H34.7832L61.5265 14.1517Z" fill="url(#paint1_linear_476_27647)"/>
<path d="M34.082 60.1346L37.434 61.9105L40.7739 60.1346H34.082Z" fill="#F9294B"/>
<g opacity="0.6">
<g opacity="0.6">
<path opacity="0.6" d="M14.3813 6.96356L11.0293 8.73928L14.3813 10.5039L17.7211 8.73928L14.3813 6.96356Z" fill="white"/>
</g>
<path opacity="0.6" d="M14.3809 3.42603V6.96608L17.7208 8.74166V5.2016L14.3809 3.42603Z" fill="#F9294B"/>
<g opacity="0.6">
<path opacity="0.6" d="M14.3813 6.96356L11.0293 8.73928L14.3813 10.5039L17.7211 8.73928L14.3813 6.96356Z" fill="white"/>
</g>
</g>
<defs>
<linearGradient id="paint0_linear_476_27647" x1="27.4028" y1="35.3681" x2="74.1974" y2="35.3681" gradientUnits="userSpaceOnUse">
<stop stop-color="white" stop-opacity="0"/>
<stop offset="1" stop-color="white"/>
</linearGradient>
<linearGradient id="paint1_linear_476_27647" x1="1615.79" y1="1282.8" x2="1986.24" y2="1437.64" gradientUnits="userSpaceOnUse">
<stop stop-color="white" stop-opacity="0"/>
<stop offset="1" stop-color="white"/>
</linearGradient>
</defs>
</svg>
